<svg width="1440" height="2091" viewBox="0 0 1440 2091" fill="none" xmlns="http://www.w3.org/2000/svg">
<g opacity="0.9" filter="url(#filter0_b_945_5701)">
<path fill-rule="evenodd" clip-rule="evenodd" d="M-537.452 1794.96C-407.387 1614.92 -249.905 1450.5 72.3588 1216.87C305.679 1047.7 513.025 858.353 731.468 814.528C939.403 772.789 1133.18 853.583 1268.06 854.138C1391.61 850.202 1391.86 757.955 1421.49 695.639C1447.46 640.953 1483.96 591.642 1527.38 544.259C1573.18 494.308 1625.19 445.528 1684.64 402.026C1788.86 315.351 1908.78 252.912 2035.7 235.821C2110.12 225.797 2177.35 234.214 2238.53 254.746L2239.23 263.84C2228.82 260.412 2218.16 257.144 2207.54 254.495C2066.85 219.403 1903.2 250.549 1733.8 371.224C1650.82 430.333 1581.03 493.067 1527.55 557.465C1474.45 621.352 1434.74 686.584 1407.36 757.002C1390.95 799.194 1375.69 846.112 1306.08 855.598C1182.79 872.432 989.718 820.167 771.806 808.48C662.476 835.591 542.474 878.009 427.663 951.18C307.175 1027.95 190.736 1122.48 74.2277 1214.85C-252.504 1434.04 -406.861 1606.61 -538.443 1781.98L-537.452 1794.96Z" fill="#3B5E9C"/>
<g filter="url(#filter1_d_945_5701)">
<path fill-rule="evenodd" clip-rule="evenodd" d="M-580.265 1234.11C-469.202 1176.7 -336.928 1127.81 -158.229 1084.56C-12.3124 1029.45 118.884 976.769 233.06 922.611C447.434 823.665 686.021 715.109 892.419 717.395C1104.3 719.773 1273.3 768.079 1332.42 700.734C1367.83 660.381 1372.95 606.374 1396.37 556.788C1433.22 470.844 1493.77 396.098 1561.79 324.733C1634.18 248.832 1715.03 179.316 1803.14 128.08C1942.66 41.4689 2091.14 26.8645 2225.29 82.0631L2225.75 88.0457C2217.67 84.6504 2209.65 81.2511 2201.58 78.307C2066.22 29.1182 1910.05 49.7957 1743.28 169.768C1649.92 236.909 1574.03 313.178 1511.38 391.454C1451.1 466.65 1406.34 543.3 1377.61 625.505C1359.81 672.858 1345.72 723.768 1269.92 742.432C1133.47 766.829 932.818 734.88 708.961 736.114C573.349 773.492 441.502 822.355 315.038 882.103C178.004 947.022 38.7444 1011.51 -96.3882 1064.51C-306.678 1118.49 -457.476 1171.02 -580.504 1230.99L-580.265 1234.11Z" fill="#D42D38"/>
</g>
<path fill-rule="evenodd" clip-rule="evenodd" d="M-562.476 1467.08C-517.768 1431.11 -475.707 1394.63 -435.372 1354.38C-244.45 1149.63 -74.7504 973.7 235.764 867.044C364.674 822.763 468.039 786.41 569.405 757.329C754.003 730.54 977.3 738.024 1164.82 794.113C1361.76 852.983 1519.01 893.34 1575.32 808.016C1606.46 760.829 1616.44 702.439 1640.88 647.229C1677.72 557.434 1734.14 480.917 1796.33 413.147C1861.93 341.786 1933.9 282.516 2010.47 242.662C2085.02 203.874 2160.39 186.337 2233.62 190.304L2234.59 202.927C2166.82 198.542 2093.7 213.873 2015.7 254.208C1923.89 301.704 1845.04 372.642 1781.07 455.883C1712.54 534.956 1660.8 625.668 1628.72 722.994C1600.74 799.827 1578.37 882.089 1430.6 871.858C1277.63 850.589 1113.64 767.07 927.13 739.397C728.172 709.886 511.124 768.087 292.495 844.491C220.256 869.753 131.816 905.117 38.243 947.985C-195.652 1055.1 -356.347 1244.79 -565.867 1422.67L-562.476 1467.08Z" fill="#1187CC"/>
<path fill-rule="evenodd" clip-rule="evenodd" d="M-578.299 1259.9C-523.816 1226.87 -473.319 1191 -424.39 1153.42C-214.323 975.178 -33.2046 831.815 269.941 780.37C443.97 750.837 579.043 724.399 732.167 706.09C895.154 718.66 1086.23 760.988 1248.84 814.706C1416.52 870.103 1552.88 893.23 1613.27 816.31C1639.27 774.058 1654.02 724.743 1675 676.596C1713.42 581.144 1772.2 502.101 1837.36 434.655C1905.78 363.841 1981.23 308.337 2060.74 275.059C2120.32 250.101 2179.79 239.112 2237.61 241.869L2237.82 244.621C2157.53 238.976 2071.2 261.262 1979.36 319.712C1898.72 371 1833.91 434.748 1781.67 508.438C1726.57 578.677 1685.91 656.758 1653.57 741.154C1625.58 814.217 1592.36 891.4 1451.62 874.093C1293.1 854.633 1117.7 782.786 937.058 725.039C735.103 710.098 518.256 730.353 324.078 768.896C253.177 782.954 160.701 805.749 59.1498 834.904C-174.416 901.977 -352.005 1078.19 -580.282 1233.93L-578.299 1259.9Z" fill="#F68CBF"/>
<path fill-rule="evenodd" clip-rule="evenodd" d="M-582.25 1208.16C-532.499 1180.39 -484.391 1150.06 -438.146 1117.32C-223.735 950.512 -37.4381 815.43 245.061 772.892C448.804 742.215 598.866 698.585 770.379 702.621C936.208 706.53 1121.06 773.132 1278.83 824.753C1440.52 877.688 1572.92 894.749 1627.62 814.663C1659.37 768.192 1672.03 710.671 1697.24 657.979C1776.4 470.399 1923.78 343.081 2073.31 285.131C2128.92 263.586 2184.32 253.669 2238.63 255.952L2238.72 257.239C2158.08 250.899 2071.34 272.544 1978.98 330.784C1895.75 383.272 1829.5 449.607 1777.44 525.861C1722.24 598.694 1684.47 680.105 1662.04 769.201C1629 889.616 1419.75 863.227 1176.04 778.332C1035.47 729.38 899.206 694.501 767.008 692.218C621.408 689.684 471.102 723.282 301.985 756.221C252.142 765.933 194.114 779.72 131.864 794.401C4.97495 818.992 -109.519 873.726 -224.221 943.73C-337.928 1013.1 -451.954 1095.58 -577.405 1165.49C-580.187 1166.98 -582.711 1168.09 -585.223 1169.21L-582.25 1208.16Z" fill="#95CF49"/>
<path fill-rule="evenodd" clip-rule="evenodd" d="M-586.915 1147.06C-520.078 1116.02 -457.397 1081.18 -399.664 1041.5C-194.489 900.703 -14.114 789.029 253.941 756.58C488.775 728.162 661.329 686.687 864.738 707.012C1024.38 722.906 1190.88 799.775 1335.39 845.588C1481.52 891.97 1601.33 898.258 1652.29 823.402C1683.02 778.281 1696.14 723.103 1720.68 673.24C1804.46 481.978 1953.67 357.428 2103.34 307.05C2149.45 291.494 2195.6 283.809 2240.86 285.319L2241.1 288.439C2137.72 283.635 2023.52 326.321 1912.03 427.782C1855.99 478.766 1812.1 533.606 1774.93 591.694C1738.16 649.119 1710.89 709.33 1683.67 772.294C1654.1 840.744 1612.35 899.092 1483.48 886.524C1314.39 858.605 1132.92 785.275 947.723 721.257C737.865 701.394 515.611 717.207 308.764 747.39C188.178 765.01 25.3073 775.298 -174.328 885.444C-319.833 965.753 -451.279 1051.15 -589.099 1118.87L-586.915 1147.06Z" fill="#BCBADA"/>
<g filter="url(#filter2_d_945_5701)">
<path fill-rule="evenodd" clip-rule="evenodd" d="M-591.632 1085.28C-577.39 1086.2 -563.151 1086.95 -548.382 1087.11C-220.408 1043.33 -35.4548 884.79 135.252 759.573C313.209 649.979 470.74 571.42 699.97 587.708C834.255 597.244 945.702 637.738 1070.36 678.778C1220.5 750.277 1400.6 841.974 1560.47 901.648C1719.29 960.93 1856.23 954.478 1917.92 838.255C1940.12 792.05 1954.56 742.397 1973.2 694.63C2038.11 517.736 2137.27 392.083 2243.57 320.143L2243.05 313.383C2220.97 328.172 2200.25 344.705 2181.13 362.799C2089.46 447.022 2013.01 567.3 1974.55 715.548C1929.4 802.487 1890.61 897.245 1770.26 920.052C1624.72 927.652 1465.55 859.25 1305.35 773.445C1114.6 692.911 921.969 615.56 745.07 590.343C639.225 575.246 488.53 567.905 293.394 654.992C122.695 731.207 -25.9641 853.186 -196.037 952.25C-310.715 1015.45 -438.333 1057 -594.301 1049.06L-591.632 1085.28Z" fill="#FBCF4B"/>
</g>
<path fill-rule="evenodd" clip-rule="evenodd" d="M-583.06 1197.54C-531.503 1175.55 -481.457 1153.3 -435.56 1124.68C-243.601 1004.91 -70.1569 899.374 169.509 852.094C358.667 814.747 503.024 774.762 663.671 741.347C839.265 740.257 1037.25 771.808 1207.83 830.764C1385.94 892.305 1533.4 931.986 1612.68 869.059C1642.59 845.293 1661.6 812.551 1682.71 782.226C1737.08 622.625 1865.18 517.108 2002.08 458.978C2087.51 422.68 2172.12 408.658 2251.26 421.732L2251.5 424.853C2230.78 421.095 2209.71 419.251 2188.58 419.346C2095.64 419.16 1995.55 453.399 1909.78 516.229C1811.82 578.527 1730.87 666.555 1689.9 778.016C1641.19 841.338 1604.61 916.029 1472.53 909.946C1309.79 885.582 1135.95 787.491 941.065 751.872C725.271 712.424 491.635 777.036 287.691 823.635C162.864 852.22 -13.2601 868.674 -247.966 1001.01C-361.763 1065.15 -472.482 1122.34 -585.168 1169.92L-583.06 1197.54Z" fill="#6267BA"/>
<g filter="url(#filter3_d_945_5701)">
<path fill-rule="evenodd" clip-rule="evenodd" d="M-575.334 1298.66C-340.81 1255.01 -182.289 1122.05 -34.9474 1001.37C135.297 862.007 294.332 758.651 498.06 724.715C609.441 709.392 705.113 701.416 798.34 712.452C889.763 723.274 976.869 749.801 1069 789.824C1214.59 853.075 1368.31 941.179 1504.8 994.936C1639.82 1048.1 1754.4 1050.81 1806.81 974.828C1835.96 932.567 1850.46 883.381 1874.41 837.043C1960.74 660.139 2095.92 550.47 2230.04 507.516C2239.12 504.597 2248.12 501.713 2257.23 499.544L2257.37 501.378C2180.98 520.448 2101.81 566.238 2024.71 641.645C1978.99 686.355 1943.63 733.995 1911.81 784.905C1880.72 834.645 1855.96 887.193 1830.32 941.563C1800.41 1001.01 1758.09 1053.46 1658.22 1041.16C1501.59 1021.85 1341.26 913.919 1165.08 831.601C976.869 743.673 770.014 706.391 599.827 712.332C498.302 715.891 342.601 732.792 134.023 864.702C12.365 941.635 -92.4316 1036.37 -206.468 1119.69C-318.247 1201.34 -438.019 1262.81 -576.435 1284.23L-575.334 1298.66Z" fill="#EB6EA7"/>
</g>
<g filter="url(#filter4_d_945_5701)">
<path fill-rule="evenodd" clip-rule="evenodd" d="M-573.262 1325.92C-374.256 1207.52 -191.35 1094.27 20.8309 1050.28C226.769 973.317 371.084 916.056 542.571 857.412C691.325 806.551 869.178 796.845 1020.06 831.45C1180.3 868.209 1314.24 921.889 1389.94 889.654C1464.96 857.72 1500.8 801.71 1573.41 753.343C1701.39 668.073 1846.3 625.199 1987.25 625.179C2092.93 625.135 2191.56 651.524 2272.66 702.157L2273.19 709.137C2215.4 672.359 2148.32 648.316 2077.83 636.688C1950.8 615.746 1805.64 637.318 1665.93 710.446C1618.22 735.4 1572.58 757.478 1534.9 787.031C1483.19 822.431 1448.55 875.702 1380.21 894.469C1312.98 912.919 1212.13 898.835 1033.28 837.652C898.39 814.091 767.653 798.167 645.387 828.081C505.048 862.393 379.374 925.071 242.346 976.39C139.382 1014.94 36.2689 1041.63 -92.9226 1087.51C-218.67 1132.22 -371.639 1188.24 -567.72 1307.85C-569.86 1309.11 -572.097 1310.21 -574.411 1311.14L-573.262 1325.92Z" fill="#8ED8F7"/>
</g>
<g filter="url(#filter5_d_945_5701)">
<path fill-rule="evenodd" clip-rule="evenodd" d="M-452.778 2036.1C-441.779 2012.81 -430.606 1989.15 -418.999 1963.23C-361.133 1837.99 -283.009 1706.97 -172.443 1557.97C-58.4097 1404.31 88.2535 1231.65 291.871 1041.18C607.477 823.953 788.249 752.486 981.038 729.223C1162.5 707.347 1285.26 697.574 1417.38 664.822C1580.63 624.348 1733.57 578.112 1886.84 552.28C2032.96 527.646 2157.52 527.604 2261.54 555.678L2261.92 560.614C2248.88 557.196 2235.96 554.321 2222.75 551.84C2052.44 515.538 1831.33 533.892 1580.37 627.547C1447.09 655.383 1326.47 690.737 1187.81 712.144C1090.77 727.124 999.79 723.108 879.127 739.571C757.051 756.221 605.878 819.322 392.494 960.113C341.385 993.821 294.628 1038.93 245.391 1083.36C68.1062 1252.11 -66.6919 1412.7 -176.012 1560.45C-282.3 1704.12 -362.968 1834.32 -426.109 1957.14C-440.81 1985.76 -455.749 2012.37 -469.306 2039.54C-463.888 2038.4 -458.482 2037.24 -452.778 2036.1Z" fill="#F4821F"/>
</g>
<g filter="url(#filter6_d_945_5701)">
<path fill-rule="evenodd" clip-rule="evenodd" d="M-557.541 1531.84C-483.043 1419.84 -399.726 1312.78 -287.001 1213.4C-170.877 1110.98 -24.9013 1011.59 180.969 911.152C329.94 838.452 447.224 773.967 579.76 737.583C792.065 679.313 950.02 672.821 1070.48 657.457C1190.76 642.117 1276.11 606.818 1357.08 579.655C1492.66 518.267 1632.97 466.786 1776.76 425.672C1964.99 371.948 2125.07 386.766 2253.34 448.15L2254.05 457.483C2237.95 449.749 2221.37 442.907 2204.41 436.992C2048.73 380.088 1855.49 393.426 1636.35 482.024C1514.77 531.211 1400.22 576.492 1281.54 617.987C1191.44 649.506 1102.27 663.033 978.649 671.839C855.027 680.644 694.642 704.251 467.595 781.117C365.736 815.591 253.917 874.122 129.972 937.27C-31.2635 1015.98 -160.326 1109.44 -272.818 1210.06C-382.415 1308.16 -475.606 1415.03 -558.393 1520.67L-557.541 1531.84Z" fill="white"/>
</g>
<path fill-rule="evenodd" clip-rule="evenodd" d="M-556.41 1546.65C-269.69 1440.14 -100.842 1220.02 66.3057 1027.68C278.831 783.182 474.971 605.346 750.731 600.752C951.412 597.467 1088.5 661.437 1260.26 725.328C1572.12 841.416 1697.75 728.907 1817.03 638.866C1939.14 521.43 2064.86 431.81 2198.3 391.325C2215.32 386.165 2231.72 381.603 2247.96 378.157L2248.32 382.913C2133.48 406.203 2011.13 476.48 1882.59 587.957C1809.33 651.499 1745.21 721.242 1652.07 763.564C1550.2 809.843 1437.29 785.146 1311.6 742.088C1188.24 699.846 1051.25 647.291 892.542 612.22C839.379 600.483 773.03 593.413 705.071 601.52C443.798 632.708 249.291 812.676 24.2857 1068.46C-132.762 1246.93 -296.819 1440.98 -557.789 1528.58L-556.41 1546.65Z" fill="#FFF200"/>
<g filter="url(#filter7_d_945_5701)">
<path fill-rule="evenodd" clip-rule="evenodd" d="M-567.69 1398.88C-562.354 1396.81 -556.762 1394.19 -551.2 1391.74C-354.525 1284.38 -210.925 1180.22 -81.19 1089.72C50.629 997.776 167.554 921.895 320.101 861.719C560.654 766.783 753.71 723.311 953.441 754.869C1119.69 781.15 1275.39 861.803 1409.78 899.181C1543.23 936.28 1648.63 927.492 1697.64 856.957C1718.58 824.478 1729.66 787.207 1745.41 751.013C1818.38 565.591 1958.16 444.76 2102.12 393.293C2151.12 375.772 2199.6 366.534 2247.2 368.246L2247.1 366.96C2234.6 366.45 2222.17 366.657 2209.5 367.253C2100.31 373.583 1982.39 431.266 1882.84 553.329C1830.98 616.89 1778.62 677.893 1739.21 748.959C1697.28 817.65 1666.32 889.515 1553.5 901.267C1414.81 900.091 1253.89 821.141 1062.09 771.226C855.756 717.516 613.032 747.881 388.515 828.896C274.05 870.199 174.679 922.756 60.6555 987.834C-52.6855 1052.51 -175.85 1136.21 -337.244 1248.82C-413.876 1302.31 -493.523 1339.46 -570.037 1368.14L-567.69 1398.88Z" fill="#ED1C23"/>
</g>
<g filter="url(#filter8_d_945_5701)">
<path fill-rule="evenodd" clip-rule="evenodd" d="M-595.73 1031.49C-403.483 1002.67 -251.295 983.687 -121.962 968.248C38.6818 931.152 161.085 912.24 286.342 873.814C503.944 805.702 726.925 731.644 937.077 763.429C1126.89 792.144 1298.63 886.836 1466.38 931.416C1646.14 969.925 1746.74 925.649 1770.39 816.251C1795.49 700.113 1844.79 604.373 1944.64 532.564C2048.81 445.512 2157.52 425.439 2253.26 447.003L2253.68 452.497C2228.07 446.91 2201.86 445 2175.03 445.805C2069.87 448.999 1954.91 499.947 1865.94 615.635C1813.59 676.477 1790 740.087 1773.98 813.399C1731.89 1006.07 1423.92 929.031 1056.58 793.119C926.043 744.835 784.349 739.786 658.406 762.82C507.126 790.486 362.438 850.534 204.43 899.563C84.6554 930.029 -18.11 951.093 -140.666 969.124C-262.251 987.031 -403.619 996.57 -596.263 1023.96L-595.73 1031.49Z" fill="#00AEEF"/>
</g>
<g filter="url(#filter9_d_945_5701)">
<path fill-rule="evenodd" clip-rule="evenodd" d="M-566.553 1413.75C-497.238 1366.51 -431.905 1316.47 -367.395 1270.72C-199.867 1134.27 -38.4435 1063.46 100.272 1003C241.661 941.43 358.919 892.091 452.36 858.22C606.079 802.528 758.501 763.873 894.877 772.216C1036.08 780.843 1158.21 819.739 1255.7 806.469C1364.5 791.665 1434.35 748.703 1526.9 708.692C1660.89 650.715 1796.68 608.867 1938.71 599.448C2057.63 591.543 2160.96 612.027 2245.48 653.253C2253.81 657.331 2261.73 661.39 2269.86 665.744L2269.75 664.288C2250.3 653.61 2230.05 644.273 2209.15 636.349C2100.22 592.795 1969.56 580.144 1821.21 622.369C1690.28 639.384 1567.99 681.535 1447.65 724.651C1367.99 753.178 1287.92 777.122 1175.22 775.607C1062.52 774.091 912.807 730.791 701.778 767.421C485.19 805.017 329.668 892.599 84.5509 1005.85C-195.179 1100.98 -374.17 1246.54 -567.808 1393.55C-568.094 1393.57 -568.078 1393.77 -568.078 1393.77L-566.553 1413.75Z" fill="#2D3191"/>
</g>
<path fill-rule="evenodd" clip-rule="evenodd" d="M-198.637 1355.26C27.1917 1250.84 204.923 1050.01 374.169 898.961C531.353 758.67 676.647 669.611 768.635 642.24C935.841 592.498 1071.53 590.714 1251.9 661.63C1441.08 736.015 1557.69 829.35 1727.31 832.086C1860.56 834.219 1960.47 770.68 2053.32 728.66C2129.82 688.42 2201.27 657.826 2267.69 636.876L2267.66 636.507C2261.99 638.234 2256.42 640.183 2250.7 642.034C2157.32 672.391 2069.01 729.769 1960.85 775.625C1814.03 837.882 1662.54 863.848 1404.28 732.216C1338.26 698.553 1273.26 664.131 1193.31 640.548C1006.31 585.313 853.001 597.999 708.493 661.383C560.821 726.142 417.632 854.083 233.518 1027.24C77.2091 1174.24 -47.2728 1275.82 -191.69 1339.83C-194.472 1345.23 -195.583 1349.51 -198.637 1355.26Z" fill="#ED1C23"/>
<path fill-rule="evenodd" clip-rule="evenodd" d="M-551.088 1616.3C-502.022 1603.53 -449.78 1590.52 -405.797 1556.07C-146.96 1353.78 -1.0434 1097.98 170.945 912.43C334.152 736.255 516.325 620.793 764.032 627.096C929.864 631.335 1047.95 680.018 1201.43 743.068C1518.05 873.154 1675.23 787.561 1798.77 714.204C1900.73 653.668 1989.44 589.829 2087.3 548.159C2147.84 522.366 2203.68 503.401 2256.85 494.568L2257.03 496.942C2178.42 509.963 2093.1 540.716 2002.21 593.278C1934.55 627.527 1870.3 669.54 1804.27 714.326C1718.29 762.832 1632.68 820.014 1517.22 820.304C1401.03 820.609 1259.05 768.154 1052.6 688.769C960.395 653.305 873.231 626.442 764.886 626.86C504.912 627.913 335.228 748.539 160.344 921.543C-2.96745 1120.89 -166.453 1374.86 -454.004 1572.84C-474.133 1586.71 -513.869 1592.14 -552.232 1601.33L-551.088 1616.3Z" fill="#00AEEF"/>
<g filter="url(#filter10_d_945_5701)">
<path fill-rule="evenodd" clip-rule="evenodd" d="M-568.561 1387.37C-555.415 1377.52 -542.279 1367.68 -529.153 1357.85C-409.955 1259.58 -300.457 1157.95 -181.446 1072.15C-60.7479 985.158 70.8253 913.846 234.808 858.292C466.854 779.681 635.738 695.712 846.806 721.801C1245.41 771.072 1344.02 737.9 1460.44 664.103C1547.05 609.221 1635.3 553.693 1736.95 506.518C1907.85 427.179 2062.24 417.298 2193.25 460.833C2214.89 468.062 2235.96 476.718 2256.29 486.738L2257.28 499.701C2230.52 486.376 2202.46 475.463 2173.48 467.105C2042.25 428.823 1885.11 445.433 1719.03 529.379C1644.44 567.086 1572.8 604.006 1509.43 649.492C1378.91 721.085 1291.56 784.468 864.168 725.239C628.505 692.593 451.979 780.074 183.24 875.808C36.9699 923.22 -87.4108 995.167 -208.746 1081.76C-327.85 1166.77 -444.607 1263.68 -571.13 1353.73L-568.561 1387.37Z" fill="#FFF200"/>
</g>
</g>
<defs>
<filter id="filter0_b_945_5701" x="-600.263" y="45.4609" width="2877.45" height="1998.07" filterUnits="userSpaceOnUse" color-interpolation-filters="sRGB">
<feFlood flood-opacity="0" result="BackgroundImageFix"/>
<feGaussianBlur in="BackgroundImageFix" stdDeviation="2"/>
<feComposite in2="SourceAlpha" operator="in" result="effect1_backgroundBlur_945_5701"/>
<feBlend mode="normal" in="SourceGraphic" in2="effect1_backgroundBlur_945_5701" result="shape"/>
</filter>
<filter id="filter1_d_945_5701" x="-629.504" y="0.460938" width="2906.25" height="1284.65" filterUnits="userSpaceOnUse" color-interpolation-filters="sRGB">
<feFlood flood-opacity="0" result="BackgroundImageFix"/>
<feColorMatrix in="SourceAlpha" type="matrix" values="0 0 0 0 0 0 0 0 0 0 0 0 0 0 0 0 0 0 127 0" result="hardAlpha"/>
<feOffset dx="1" dy="1"/>
<feGaussianBlur stdDeviation="25"/>
<feComposite in2="hardAlpha" operator="out"/>
<feColorMatrix type="matrix" values="0 0 0 0 1 0 0 0 0 0.179167 0 0 0 0 0.179167 0 0 0 1 0"/>
<feBlend mode="normal" in2="BackgroundImageFix" result="effect1_dropShadow_945_5701"/>
<feBlend mode="normal" in="SourceGraphic" in2="effect1_dropShadow_945_5701" result="shape"/>
</filter>
<filter id="filter2_d_945_5701" x="-643.301" y="264.382" width="2937.87" height="873.729" filterUnits="userSpaceOnUse" color-interpolation-filters="sRGB">
<feFlood flood-opacity="0" result="BackgroundImageFix"/>
<feColorMatrix in="SourceAlpha" type="matrix" values="0 0 0 0 0 0 0 0 0 0 0 0 0 0 0 0 0 0 127 0" result="hardAlpha"/>
<feOffset dx="1" dy="1"/>
<feGaussianBlur stdDeviation="25"/>
<feComposite in2="hardAlpha" operator="out"/>
<feColorMatrix type="matrix" values="0 0 0 0 0.984314 0 0 0 0 0.811765 0 0 0 0 0.294118 0 0 0 1 0"/>
<feBlend mode="normal" in2="BackgroundImageFix" result="effect1_dropShadow_945_5701"/>
<feBlend mode="normal" in="SourceGraphic" in2="effect1_dropShadow_945_5701" result="shape"/>
</filter>
<filter id="filter3_d_945_5701" x="-625.436" y="450.543" width="2933.81" height="899.113" filterUnits="userSpaceOnUse" color-interpolation-filters="sRGB">
<feFlood flood-opacity="0" result="BackgroundImageFix"/>
<feColorMatrix in="SourceAlpha" type="matrix" values="0 0 0 0 0 0 0 0 0 0 0 0 0 0 0 0 0 0 127 0" result="hardAlpha"/>
<feOffset dx="1" dy="1"/>
<feGaussianBlur stdDeviation="25"/>
<feComposite in2="hardAlpha" operator="out"/>
<feColorMatrix type="matrix" values="0 0 0 0 1 0 0 0 0 0.583333 0 0 0 0 0.730392 0 0 0 1 0"/>
<feBlend mode="normal" in2="BackgroundImageFix" result="effect1_dropShadow_945_5701"/>
<feBlend mode="normal" in="SourceGraphic" in2="effect1_dropShadow_945_5701" result="shape"/>
</filter>
<filter id="filter4_d_945_5701" x="-623.411" y="576.179" width="2947.6" height="800.74" filterUnits="userSpaceOnUse" color-interpolation-filters="sRGB">
<feFlood flood-opacity="0" result="BackgroundImageFix"/>
<feColorMatrix in="SourceAlpha" type="matrix" values="0 0 0 0 0 0 0 0 0 0 0 0 0 0 0 0 0 0 127 0" result="hardAlpha"/>
<feOffset dx="1" dy="1"/>
<feGaussianBlur stdDeviation="25"/>
<feComposite in2="hardAlpha" operator="out"/>
<feColorMatrix type="matrix" values="0 0 0 0 0.552941 0 0 0 0 0.847059 0 0 0 0 0.968627 0 0 0 1 0"/>
<feBlend mode="normal" in2="BackgroundImageFix" result="effect1_dropShadow_945_5701"/>
<feBlend mode="normal" in="SourceGraphic" in2="effect1_dropShadow_945_5701" result="shape"/>
</filter>
<filter id="filter5_d_945_5701" x="-518.306" y="485.193" width="2831.22" height="1605.34" filterUnits="userSpaceOnUse" color-interpolation-filters="sRGB">
<feFlood flood-opacity="0" result="BackgroundImageFix"/>
<feColorMatrix in="SourceAlpha" type="matrix" values="0 0 0 0 0 0 0 0 0 0 0 0 0 0 0 0 0 0 127 0" result="hardAlpha"/>
<feOffset dx="1" dy="1"/>
<feGaussianBlur stdDeviation="25"/>
<feComposite in2="hardAlpha" operator="out"/>
<feColorMatrix type="matrix" values="0 0 0 0 0.956863 0 0 0 0 0.509804 0 0 0 0 0.121569 0 0 0 1 0"/>
<feBlend mode="normal" in2="BackgroundImageFix" result="effect1_dropShadow_945_5701"/>
<feBlend mode="normal" in="SourceGraphic" in2="effect1_dropShadow_945_5701" result="shape"/>
</filter>
<filter id="filter6_d_945_5701" x="-607.394" y="343.624" width="2912.45" height="1239.21" filterUnits="userSpaceOnUse" color-interpolation-filters="sRGB">
<feFlood flood-opacity="0" result="BackgroundImageFix"/>
<feColorMatrix in="SourceAlpha" type="matrix" values="0 0 0 0 0 0 0 0 0 0 0 0 0 0 0 0 0 0 127 0" result="hardAlpha"/>
<feOffset dx="1" dy="1"/>
<feGaussianBlur stdDeviation="25"/>
<feComposite in2="hardAlpha" operator="out"/>
<feColorMatrix type="matrix" values="0 0 0 0 1 0 0 0 0 1 0 0 0 0 1 0 0 0 1 0"/>
<feBlend mode="normal" in2="BackgroundImageFix" result="effect1_dropShadow_945_5701"/>
<feBlend mode="normal" in="SourceGraphic" in2="effect1_dropShadow_945_5701" result="shape"/>
</filter>
<filter id="filter7_d_945_5701" x="-619.037" y="317.671" width="2917.24" height="1132.21" filterUnits="userSpaceOnUse" color-interpolation-filters="sRGB">
<feFlood flood-opacity="0" result="BackgroundImageFix"/>
<feColorMatrix in="SourceAlpha" type="matrix" values="0 0 0 0 0 0 0 0 0 0 0 0 0 0 0 0 0 0 127 0" result="hardAlpha"/>
<feOffset dx="1" dy="1"/>
<feGaussianBlur stdDeviation="25"/>
<feComposite in2="hardAlpha" operator="out"/>
<feColorMatrix type="matrix" values="0 0 0 0 1 0 0 0 0 0.208333 0 0 0 0 0.208333 0 0 0 1 0"/>
<feBlend mode="normal" in2="BackgroundImageFix" result="effect1_dropShadow_945_5701"/>
<feBlend mode="normal" in="SourceGraphic" in2="effect1_dropShadow_945_5701" result="shape"/>
</filter>
<filter id="filter8_d_945_5701" x="-645.263" y="390.022" width="2949.94" height="692.473" filterUnits="userSpaceOnUse" color-interpolation-filters="sRGB">
<feFlood flood-opacity="0" result="BackgroundImageFix"/>
<feColorMatrix in="SourceAlpha" type="matrix" values="0 0 0 0 0 0 0 0 0 0 0 0 0 0 0 0 0 0 127 0" result="hardAlpha"/>
<feOffset dx="1" dy="1"/>
<feGaussianBlur stdDeviation="25"/>
<feComposite in2="hardAlpha" operator="out"/>
<feColorMatrix type="matrix" values="0 0 0 0 0 0 0 0 0 0.682353 0 0 0 0 0.937255 0 0 0 1 0"/>
<feBlend mode="normal" in2="BackgroundImageFix" result="effect1_dropShadow_945_5701"/>
<feBlend mode="normal" in="SourceGraphic" in2="effect1_dropShadow_945_5701" result="shape"/>
</filter>
<filter id="filter9_d_945_5701" x="-617.078" y="547.428" width="2937.94" height="917.324" filterUnits="userSpaceOnUse" color-interpolation-filters="sRGB">
<feFlood flood-opacity="0" result="BackgroundImageFix"/>
<feColorMatrix in="SourceAlpha" type="matrix" values="0 0 0 0 0 0 0 0 0 0 0 0 0 0 0 0 0 0 127 0" result="hardAlpha"/>
<feOffset dx="1" dy="1"/>
<feGaussianBlur stdDeviation="25"/>
<feComposite in2="hardAlpha" operator="out"/>
<feColorMatrix type="matrix" values="0 0 0 0 0.233333 0 0 0 0 0.264 0 0 0 0 1 0 0 0 1 0"/>
<feBlend mode="normal" in2="BackgroundImageFix" result="effect1_dropShadow_945_5701"/>
<feBlend mode="normal" in="SourceGraphic" in2="effect1_dropShadow_945_5701" result="shape"/>
</filter>
<filter id="filter10_d_945_5701" x="-620.13" y="386.218" width="2928.41" height="1052.15" filterUnits="userSpaceOnUse" color-interpolation-filters="sRGB">
<feFlood flood-opacity="0" result="BackgroundImageFix"/>
<feColorMatrix in="SourceAlpha" type="matrix" values="0 0 0 0 0 0 0 0 0 0 0 0 0 0 0 0 0 0 127 0" result="hardAlpha"/>
<feOffset dx="1" dy="1"/>
<feGaussianBlur stdDeviation="25"/>
<feComposite in2="hardAlpha" operator="out"/>
<feColorMatrix type="matrix" values="0 0 0 0 1 0 0 0 0 0.94902 0 0 0 0 0 0 0 0 1 0"/>
<feBlend mode="normal" in2="BackgroundImageFix" result="effect1_dropShadow_945_5701"/>
<feBlend mode="normal" in="SourceGraphic" in2="effect1_dropShadow_945_5701" result="shape"/>
</filter>
</defs>
</svg>
