<svg width="61" height="60" viewBox="0 0 61 60" fill="none" xmlns="http://www.w3.org/2000/svg">
<rect x="7.68164" y="1" width="51.4545" height="51.4545" rx="25.7273" stroke="white" stroke-width="2"/>
<circle cx="33.5022" cy="21.4441" r="9.75319" stroke="white" stroke-width="2"/>
<path d="M40.8965 29.0454C43.892 30.4792 49.632 36.6366 49.632 50.247" stroke="white" stroke-width="2"/>
<path d="M26.2129 29.0454C23.2174 30.4792 17.3726 36.6366 17.3726 50.247" stroke="white" stroke-width="2"/>
<rect x="1" y="38.2271" width="20.7727" height="20.7727" rx="10.3864" fill="#4D2C2D"/>
<rect x="1" y="38.2271" width="20.7727" height="20.7727" rx="10.3864" stroke="white" stroke-width="2"/>
<path d="M15.2679 45.2958C13.996 44.2414 12.6221 43.718 11.3971 43.6007M7.44727 52.5634C8.56251 53.4234 10.0321 53.8832 11.3971 53.9996M11.3971 43.6007C9.60926 43.4297 8.13827 44.1239 7.76326 45.2958C7.1313 47.2707 8.72148 47.958 11.3971 48.6926C14.2122 49.5939 15.5839 50.7466 15.2679 52.5634C15.082 53.632 13.3463 54.1659 11.3971 53.9996M11.3971 43.6007V40.3979M11.3971 53.9996V56.8291" stroke="white" stroke-width="2" stroke-linecap="round"/>
</svg>
