<svg width="59" height="62" viewBox="0 0 59 62" fill="none" xmlns="http://www.w3.org/2000/svg">
<rect x="11.4604" y="9.81543" width="28.5174" height="28.5174" rx="14.2587" stroke="#505050" stroke-width="2"/>
<circle cx="25.7721" cy="21.058" r="5.13903" stroke="#505050" stroke-width="2"/>
<path d="M29.9937 25.3979C31.7038 26.2165 34.9808 29.7318 34.9808 37.502" stroke="#505050" stroke-width="2"/>
<path d="M21.6106 25.3979C19.9004 26.2165 16.5637 29.7318 16.5637 37.502" stroke="#505050" stroke-width="2"/>
<path d="M33.7756 37.0131L51.5367 54.7743C54.1612 57.3988 56.4806 54.7743 56.4806 54.7743C56.4806 54.7743 59.2882 52.2108 56.4806 49.4032L38.8415 31.7642" stroke="#505050" stroke-width="2"/>
<path d="M4.72312 1.00285L4.70418 2.00267L4.71365 2.00285H4.72312V1.00285ZM40.9777 1.00285L41.7373 0.352419L41.438 0.00285083H40.9777V1.00285ZM50.0719 11.6229H51.0719V11.2532L50.8315 10.9725L50.0719 11.6229ZM40.9777 9.79185H39.9777L39.9778 9.79761L40.9777 9.79185ZM42.8088 11.6229V10.6228L42.7973 10.623L42.8088 11.6229ZM18.8832 44.9244C18.3309 44.9244 17.8832 45.3721 17.8832 45.9244C17.8832 46.4767 18.3309 46.9244 18.8832 46.9244V44.9244ZM32.8601 46.9244C33.4124 46.9244 33.8601 46.4767 33.8601 45.9244C33.8601 45.3721 33.4124 44.9244 32.8601 44.9244V46.9244ZM9.6059 51.272C9.05361 51.272 8.6059 51.7197 8.6059 52.272C8.6059 52.8243 9.05361 53.272 9.6059 53.272V51.272ZM16.6859 53.272C17.2382 53.272 17.6859 52.8243 17.6859 52.272C17.6859 51.7197 17.2382 51.272 16.6859 51.272V53.272ZM34.5081 51.272C33.9558 51.272 33.5081 51.7197 33.5081 52.272C33.5081 52.8243 33.9558 53.272 34.5081 53.272V51.272ZM41.5271 53.272C42.0793 53.272 42.5271 52.8243 42.5271 52.272C42.5271 51.7197 42.0793 51.272 41.5271 51.272V53.272ZM23.0335 51.272C22.4813 51.272 22.0335 51.7197 22.0335 52.272C22.0335 52.8243 22.4813 53.272 23.0335 53.272V51.272ZM28.8318 53.272C29.3841 53.272 29.8318 52.8243 29.8318 52.272C29.8318 51.7197 29.3841 51.272 28.8318 51.272V53.272ZM25.7191 61C25.7191 60 25.719 60 25.7189 60C25.7187 60 25.7185 60 25.7182 60C25.7179 60 25.7176 60 25.7171 60C25.7167 60 25.7162 60 25.7156 60C25.715 60 25.7144 60 25.7137 60C25.7129 60 25.7121 60 25.7113 60C25.7104 60 25.7095 60 25.7085 60C25.7075 60 25.7064 60 25.7053 60C25.7041 60 25.7029 60 25.7016 60C25.7003 60 25.699 60 25.6975 60C25.6961 60 25.6946 60 25.6931 60C25.6915 60 25.6899 60 25.6882 60C25.6865 60 25.6847 60 25.6828 60C25.681 60 25.6791 60 25.6771 60C25.6751 60 25.6731 60 25.6709 60C25.6688 60 25.6666 60 25.6644 60C25.6621 60 25.6598 60 25.6574 60C25.655 60 25.6526 60 25.65 60C25.6475 60 25.6449 60 25.6422 60C25.6396 60 25.6369 60 25.6341 60C25.6313 60 25.6284 60 25.6255 60C25.6225 60 25.6195 60 25.6165 60C25.6134 60 25.6103 60 25.6071 60C25.6039 60 25.6006 60 25.5973 60C25.5939 60 25.5905 60 25.5871 60C25.5836 60 25.5801 60 25.5765 60C25.5729 60 25.5692 60 25.5655 60C25.5618 60 25.558 60 25.5541 60C25.5503 60 25.5463 60 25.5424 60C25.5384 60 25.5343 60 25.5302 60C25.5261 60 25.5219 60 25.5177 60C25.5134 60 25.5091 60 25.5047 60C25.5004 60 25.4959 60 25.4914 60C25.4869 60 25.4824 60 25.4777 60C25.4731 60 25.4684 60 25.4637 60C25.4589 60 25.4541 60 25.4492 60C25.4443 60 25.4394 60 25.4344 60C25.4294 60 25.4243 60 25.4192 60C25.414 60 25.4088 60 25.4036 60C25.3983 60 25.393 60 25.3876 60C25.3822 60 25.3768 60 25.3713 60C25.3658 60 25.3602 60 25.3546 60C25.349 60 25.3433 60 25.3375 60C25.3318 60 25.326 60 25.3201 60C25.3142 60 25.3083 60 25.3023 60C25.2963 60 25.2903 60 25.2841 60C25.278 60 25.2719 60 25.2656 60C25.2594 60 25.2531 60 25.2467 60C25.2404 60 25.234 60 25.2275 60C25.221 60 25.2145 60 25.2079 60C25.2013 60 25.1947 60 25.188 60C25.1812 60 25.1745 60 25.1676 60C25.1608 60 25.1539 60 25.147 60C25.14 60 25.133 60 25.126 60C25.1189 60 25.1118 60 25.1046 60C25.0975 60 25.0902 60 25.0829 60C25.0756 60 25.0683 60 25.0609 60C25.0535 60 25.046 60 25.0385 60C25.031 60 25.0234 60 25.0158 60C25.0081 60 25.0004 60 24.9927 60C24.9849 60 24.9771 60 24.9693 60C24.9614 60 24.9535 60 24.9455 60C24.9375 60 24.9295 60 24.9214 60C24.9133 60 24.9052 60 24.897 60C24.8888 60 24.8806 60 24.8723 60C24.864 60 24.8556 60 24.8472 60C24.8388 60 24.8303 60 24.8218 60C24.8132 60 24.8047 60 24.796 60C24.7874 60 24.7787 60 24.77 60C24.7612 60 24.7524 60 24.7436 60C24.7347 60 24.7258 60 24.7169 60C24.7079 60 24.6989 60 24.6898 60C24.6807 60 24.6716 60 24.6625 60C24.6533 60 24.6441 60 24.6348 60C24.6255 60 24.6162 60 24.6068 60C24.5974 60 24.588 60 24.5785 60C24.569 60 24.5595 60 24.5499 60C24.5403 60 24.5306 60 24.521 60C24.5113 60 24.5015 60 24.4917 60C24.4819 60 24.4721 60 24.4622 60C24.4523 60 24.4423 60 24.4323 60C24.4223 60 24.4123 60 24.4022 60C24.3921 60 24.3819 60 24.3717 60C24.3615 60 24.3512 60 24.3409 60C24.3306 60 24.3203 60 24.3099 60C24.2995 60 24.289 60 24.2785 60C24.268 60 24.2575 60 24.2469 60C24.2362 60 24.2256 60 24.2149 60C24.2042 60 24.1934 60 24.1826 60C24.1719 60 24.161 60 24.1501 60C24.1392 60 24.1283 60 24.1173 60C24.1063 60 24.0952 60 24.0842 60C24.0731 60 24.0619 60 24.0508 60C24.0396 60 24.0283 60 24.0171 60C24.0058 60 23.9945 60 23.9831 60C23.9717 60 23.9603 60 23.9488 60C23.9374 60 23.9258 60 23.9143 60C23.9027 60 23.8911 60 23.8795 60C23.8678 60 23.8561 60 23.8444 60C23.8326 60 23.8208 60 23.809 60C23.7972 60 23.7853 60 23.7734 60C23.7614 60 23.7495 60 23.7374 60C23.7254 60 23.7134 60 23.7012 60C23.6891 60 23.677 60 23.6648 60C23.6526 60 23.6403 60 23.6281 60C23.6158 60 23.6034 60 23.5911 60C23.5787 60 23.5663 60 23.5538 60C23.5413 60 23.5288 60 23.5163 60C23.5037 60 23.4911 60 23.4785 60C23.4659 60 23.4532 60 23.4405 60C23.4277 60 23.415 60 23.4022 60C23.3893 60 23.3765 60 23.3636 60C23.3507 60 23.3378 60 23.3248 60C23.3118 60 23.2988 60 23.2857 60C23.2727 60 23.2596 60 23.2464 60C23.2333 60 23.2201 60 23.2068 60C23.1936 60 23.1803 60 23.167 60C23.1537 60 23.1404 60 23.127 60C23.1136 60 23.1001 60 23.0867 60C23.0732 60 23.0597 60 23.0461 60C23.0325 60 23.0189 60 23.0053 60C22.9917 60 22.978 60 22.9643 60C22.9506 60 22.9368 60 22.923 60C22.9092 60 22.8954 60 22.8815 60C22.8676 60 22.8537 60 22.8397 60C22.8258 60 22.8118 60 22.7978 60C22.7837 60 22.7697 60 22.7556 60C22.7414 60 22.7273 60 22.7131 60C22.6989 60 22.6847 60 22.6704 60C22.6562 60 22.6419 60 22.6275 60C22.6132 60 22.5988 60 22.5844 60C22.57 60 22.5556 60 22.5411 60C22.5266 60 22.5121 60 22.4975 60C22.4829 60 22.4683 60 22.4537 60C22.4391 60 22.4244 60 22.4097 60C22.395 60 22.3802 60 22.3655 60C22.3507 60 22.3359 60 22.321 60C22.3062 60 22.2913 60 22.2764 60C22.2614 60 22.2465 60 22.2315 60C22.2165 60 22.2015 60 22.1864 60C22.1713 60 22.1562 60 22.1411 60C22.126 60 22.1108 60 22.0956 60C22.0804 60 22.0652 60 22.0499 60C22.0346 60 22.0193 60 22.004 60C21.9886 60 21.9733 60 21.9579 60C21.9424 60 21.927 60 21.9115 60C21.8961 60 21.8806 60 21.865 60C21.8495 60 21.8339 60 21.8183 60C21.8027 60 21.7871 60 21.7714 60C21.7557 60 21.74 60 21.7243 60C21.7085 60 21.6928 60 21.677 60C21.6612 60 21.6453 60 21.6295 60C21.6136 60 21.5977 60 21.5818 60C21.5659 60 21.5499 60 21.5339 60C21.5179 60 21.5019 60 21.4859 60C21.4698 60 21.4537 60 21.4376 60C21.4215 60 21.4053 60 21.3892 60C21.373 60 21.3568 60 21.3406 60C21.3243 60 21.3081 60 21.2918 60C21.2755 60 21.2591 60 21.2428 60C21.2264 60 21.2101 60 21.1936 60C21.1772 60 21.1608 60 21.1443 60C21.1278 60 21.1113 60 21.0948 60C21.0783 60 21.0617 60 21.0451 60C21.0286 60 21.0119 60 20.9953 60C20.9787 60 20.962 60 20.9453 60C20.9286 60 20.9119 60 20.8951 60C20.8784 60 20.8616 60 20.8448 60C20.828 60 20.8111 60 20.7942 60C20.7774 60 20.7605 60 20.7436 60C20.7267 60 20.7097 60 20.6927 60C20.6758 60 20.6588 60 20.6417 60C20.6247 60 20.6077 60 20.5906 60C20.5735 60 20.5564 60 20.5393 60C20.5222 60 20.505 60 20.4878 60C20.4706 60 20.4534 60 20.4362 60C20.419 60 20.4017 60 20.3844 60C20.3671 60 20.3498 60 20.3325 60C20.3152 60 20.2978 60 20.2804 60C20.2631 60 20.2457 60 20.2282 60C20.2108 60 20.1933 60 20.1759 60C20.1584 60 20.1409 60 20.1234 60C20.1058 60 20.0883 60 20.0707 60C20.0532 60 20.0356 60 20.0179 60C20.0003 60 19.9827 60 19.965 60C19.9473 60 19.9297 60 19.912 60C19.8942 60 19.8765 60 19.8588 60C19.841 60 19.8232 60 19.8054 60C19.7876 60 19.7698 60 19.752 60C19.7341 60 19.7163 60 19.6984 60C19.6805 60 19.6626 60 19.6447 60C19.6267 60 19.6088 60 19.5908 60C19.5728 60 19.5548 60 19.5368 60C19.5188 60 19.5008 60 19.4827 60C19.4647 60 19.4466 60 19.4285 60C19.4104 60 19.3923 60 19.3742 60C19.356 60 19.3379 60 19.3197 60C19.3015 60 19.2833 60 19.2651 60C19.2469 60 19.2287 60 19.2104 60C19.1922 60 19.1739 60 19.1556 60C19.1373 60 19.119 60 19.1007 60C19.0824 60 19.064 60 19.0457 60C19.0273 60 19.0089 60 18.9905 60C18.9721 60 18.9537 60 18.9353 60C18.9168 60 18.8984 60 18.8799 60C18.8614 60 18.843 60 18.8245 60C18.8059 60 18.7874 60 18.7689 60C18.7503 60 18.7318 60 18.7132 60C18.6946 60 18.6761 60 18.6575 60C18.6388 60 18.6202 60 18.6016 60C18.583 60 18.5643 60 18.5456 60C18.527 60 18.5083 60 18.4896 60C18.4709 60 18.4522 60 18.4334 60C18.4147 60 18.3959 60 18.3772 60C18.3584 60 18.3396 60 18.3208 60C18.3021 60 18.2832 60 18.2644 60C18.2456 60 18.2268 60 18.2079 60C18.1891 60 18.1702 60 18.1513 60C18.1324 60 18.1136 60 18.0946 60C18.0757 60 18.0568 60 18.0379 60C18.019 60 18 60 17.9811 60C17.9621 60 17.9431 60 17.9241 60C17.9051 60 17.8861 60 17.8671 60C17.8481 60 17.8291 60 17.8101 60C17.791 60 17.772 60 17.7529 60C17.7339 60 17.7148 60 17.6957 60C17.6766 60 17.6575 60 17.6384 60C17.6193 60 17.6002 60 17.5811 60C17.5619 60 17.5428 60 17.5236 60C17.5045 60 17.4853 60 17.4661 60C17.447 60 17.4278 60 17.4086 60C17.3894 60 17.3702 60 17.351 60C17.3318 60 17.3125 60 17.2933 60C17.2741 60 17.2548 60 17.2355 60C17.2163 60 17.197 60 17.1778 60C17.1585 60 17.1392 60 17.1199 60C17.1006 60 17.0813 60 17.062 60C17.0427 60 17.0234 60 17.004 60C16.9847 60 16.9654 60 16.946 60C16.9267 60 16.9073 60 16.888 60C16.8686 60 16.8492 60 16.8298 60C16.8105 60 16.7911 60 16.7717 60C16.7523 60 16.7329 60 16.7135 60C16.6941 60 16.6747 60 16.6552 60C16.6358 60 16.6164 60 16.597 60C16.5775 60 16.5581 60 16.5386 60C16.5192 60 16.4997 60 16.4803 60C16.4608 60 16.4413 60 16.4219 60C16.4024 60 16.3829 60 16.3634 60C16.3439 60 16.3245 60 16.305 60C16.2855 60 16.266 60 16.2465 60C16.2269 60 16.2074 60 16.1879 60C16.1684 60 16.1489 60 16.1294 60C16.1098 60 16.0903 60 16.0708 60C16.0512 60 16.0317 60 16.0122 60C15.9926 60 15.9731 60 15.9535 60C15.934 60 15.9144 60 15.8949 60C15.8753 60 15.8557 60 15.8362 60C15.8166 60 15.797 60 15.7775 60C15.7579 60 15.7383 60 15.7187 60C15.6992 60 15.6796 60 15.66 60C15.6404 60 15.6208 60 15.6013 60C15.5817 60 15.5621 60 15.5425 60C15.5229 60 15.5033 60 15.4837 60C15.4641 60 15.4445 60 15.4249 60C15.4054 60 15.3858 60 15.3662 60C15.3466 60 15.327 60 15.3074 60C15.2878 60 15.2682 60 15.2486 60C15.229 60 15.2094 60 15.1898 60C15.1702 60 15.1506 60 15.131 60C15.1114 60 15.0917 60 15.0721 60C15.0525 60 15.0329 60 15.0133 60C14.9937 60 14.9741 60 14.9545 60C14.9349 60 14.9153 60 14.8958 60C14.8762 60 14.8566 60 14.837 60C14.8174 60 14.7978 60 14.7782 60C14.7586 60 14.739 60 14.7194 60C14.6998 60 14.6802 60 14.6607 60C14.6411 60 14.6215 60 14.6019 60C14.5823 60 14.5628 60 14.5432 60C14.5236 60 14.504 60 14.4845 60C14.4649 60 14.4453 60 14.4258 60C14.4062 60 14.3867 60 14.3671 60C14.3475 60 14.328 60 14.3084 60C14.2889 60 14.2694 60 14.2498 60C14.2303 60 14.2107 60 14.1912 60C14.1717 60 14.1521 60 14.1326 60C14.1131 60 14.0936 60 14.0741 60C14.0546 60 14.0351 60 14.0155 60C13.996 60 13.9765 60 13.9571 60C13.9376 60 13.9181 60 13.8986 60C13.8791 60 13.8596 60 13.8402 60C13.8207 60 13.8012 60 13.7818 60C13.7623 60 13.7429 60 13.7234 60C13.704 60 13.6845 60 13.6651 60C13.6457 60 13.6263 60 13.6068 60C13.5874 60 13.568 60 13.5486 60C13.5292 60 13.5098 60 13.4904 60C13.471 60 13.4517 60 13.4323 60C13.4129 60 13.3935 60 13.3742 60C13.3548 60 13.3355 60 13.3161 60C13.2968 60 13.2775 60 13.2581 60C13.2388 60 13.2195 60 13.2002 60C13.1809 60 13.1616 60 13.1423 60C13.123 60 13.1037 60 13.0845 60C13.0652 60 13.0459 60 13.0267 60C13.0074 60 12.9882 60 12.969 60C12.9497 60 12.9305 60 12.9113 60C12.8921 60 12.8729 60 12.8537 60C12.8345 60 12.8154 60 12.7962 60C12.777 60 12.7579 60 12.7387 60C12.7196 60 12.7004 60 12.6813 60C12.6622 60 12.6431 60 12.624 60C12.6049 60 12.5858 60 12.5667 60C12.5476 60 12.5286 60 12.5095 60C12.4905 60 12.4714 60 12.4524 60C12.4334 60 12.4144 60 12.3953 60C12.3763 60 12.3574 60 12.3384 60C12.3194 60 12.3004 60 12.2815 60C12.2625 60 12.2436 60 12.2247 60C12.2057 60 12.1868 60 12.1679 60C12.149 60 12.1302 60 12.1113 60C12.0924 60 12.0736 60 12.0547 60C12.0359 60 12.0171 60 11.9982 60C11.9794 60 11.9606 60 11.9419 60C11.9231 60 11.9043 60 11.8855 60C11.8668 60 11.8481 60 11.8293 60C11.8106 60 11.7919 60 11.7732 60C11.7545 60 11.7359 60 11.7172 60C11.6985 60 11.6799 60 11.6613 60C11.6426 60 11.624 60 11.6054 60C11.5868 60 11.5683 60 11.5497 60C11.5311 60 11.5126 60 11.4941 60C11.4755 60 11.457 60 11.4385 60C11.42 60 11.4016 60 11.3831 60C11.3646 60 11.3462 60 11.3278 60C11.3094 60 11.2909 60 11.2726 60C11.2542 60 11.2358 60 11.2175 60C11.1991 60 11.1808 60 11.1625 60C11.1441 60 11.1258 60 11.1076 60C11.0893 60 11.071 60 11.0528 60C11.0346 60 11.0163 60 10.9981 60C10.9799 60 10.9618 60 10.9436 60C10.9254 60 10.9073 60 10.8892 60C10.8711 60 10.853 60 10.8349 60C10.8168 60 10.7987 60 10.7807 60C10.7626 60 10.7446 60 10.7266 60C10.7086 60 10.6907 60 10.6727 60C10.6547 60 10.6368 60 10.6189 60C10.601 60 10.5831 60 10.5652 60C10.5473 60 10.5295 60 10.5117 60C10.4938 60 10.476 60 10.4582 60C10.4405 60 10.4227 60 10.405 60C10.3872 60 10.3695 60 10.3518 60C10.3341 60 10.3164 60 10.2988 60C10.2811 60 10.2635 60 10.2459 60C10.2283 60 10.2107 60 10.1932 60C10.1756 60 10.1581 60 10.1406 60C10.1231 60 10.1056 60 10.0881 60C10.0706 60 10.0532 60 10.0358 60C10.0184 60 10.001 60 9.98363 60C9.96627 60 9.94893 60 9.93161 60C9.9143 60 9.89701 60 9.87974 60C9.86248 60 9.84524 60 9.82802 60C9.81081 60 9.79362 60 9.77645 60C9.75929 60 9.74215 60 9.72504 60C9.70793 60 9.69084 60 9.67378 60C9.65672 60 9.63968 60 9.62268 60C9.60567 60 9.58869 60 9.57173 60C9.55478 60 9.53785 60 9.52095 60C9.50405 60 9.48717 60 9.47033 60C9.45348 60 9.43666 60 9.41987 60C9.40308 60 9.38631 60 9.36958 60C9.35284 60 9.33613 60 9.31945 60C9.30277 60 9.28612 60 9.26949 60C9.25287 60 9.23627 60 9.2197 60C9.20314 60 9.1866 60 9.17009 60C9.15358 60 9.1371 60 9.12064 60C9.10419 60 9.08777 60 9.07137 60C9.05498 60 9.03862 60 9.02228 60C9.00595 60 8.98964 60 8.97337 60C8.95709 60 8.94085 60 8.92463 60C8.90842 60 8.89223 60 8.87608 60C8.85992 60 8.8438 60 8.82771 60C8.81161 60 8.79555 60 8.77952 60C8.76349 60 8.74749 60 8.73152 60C8.71555 60 8.69961 60 8.6837 60C8.6678 60 8.65192 60 8.63608 60C8.62024 60 8.60443 60 8.58865 60C8.57287 60 8.55712 60 8.54141 60C8.52569 60 8.51001 60 8.49436 60C8.47871 60 8.46309 60 8.44751 60C8.43192 60 8.41637 60 8.40085 60C8.38534 60 8.36985 60 8.3544 60C8.33895 60 8.32353 60 8.30815 60C8.29276 60 8.27741 60 8.26209 60C8.24678 60 8.23149 60 8.21625 60C8.201 60 8.18578 60 8.1706 60C8.15542 60 8.14028 60 8.12517 60C8.11006 60 8.09498 60 8.07994 60C8.0649 60 8.04989 60 8.03492 60C8.01995 60 8.00502 60 7.99012 60C7.97522 60 7.96035 60 7.94553 60C7.9307 60 7.91591 60 7.90115 60C7.88639 60 7.87167 60 7.85699 60C7.84231 60 7.82766 60 7.81305 60C7.79844 60 7.78386 60 7.76933 60C7.75479 60 7.74029 60 7.72583 60C7.71136 60 7.69694 60 7.68255 60C7.66816 60 7.65381 60 7.6395 60C7.62519 60 7.61091 60 7.59667 60C7.58244 60 7.56824 60 7.55408 60C7.53991 60 7.52579 60 7.51171 60C7.49762 60 7.48358 60 7.46957 60C7.45556 60 7.4416 60 7.42767 60C7.41374 60 7.39985 60 7.386 60C7.37215 60 7.35834 60 7.34456 60C7.33079 60 7.31706 60 7.30337 60C7.28968 60 7.27602 60 7.26241 60C7.2488 60 7.23523 60 7.2217 60C7.20817 60 7.19467 60 7.18122 60C7.16777 60 7.15436 60 7.141 60C7.12763 60 7.1143 60 7.10101 60C7.08773 60 7.07448 60 7.06128 60C7.04807 60 7.03491 60 7.02179 60C7.00867 60 6.99559 60 6.98256 60C6.96952 60 6.95652 60 6.94357 60C6.93062 60 6.91771 60 6.90484 60C6.89197 60 6.87915 60 6.86637 60C6.85359 60 6.84085 60 6.82815 60C6.81545 60 6.8028 60 6.79019 60C6.77758 60 6.76502 60 6.75249 60C6.73997 60 6.72749 60 6.71506 60C6.70262 60 6.69023 60 6.67789 60C6.66554 60 6.65324 60 6.64098 60C6.62872 60 6.61651 60 6.60434 60C6.59217 60 6.58004 60 6.56796 60C6.55589 60 6.54385 60 6.53186 60C6.51987 60 6.50793 60 6.49603 60C6.48413 60 6.47228 60 6.46047 60C6.44867 60 6.43691 60 6.42519 60C6.41348 60 6.40181 60 6.39019 60C6.37856 60 6.36699 60 6.35546 60C6.34393 60 6.33245 60 6.32101 60C6.30957 60 6.29818 60 6.28684 60C6.2755 60 6.26421 60 6.25296 60C6.24171 60 6.23051 60 6.21936 60C6.20821 60 6.1971 60 6.18605 60C6.17499 60 6.16398 60 6.15302 60C6.14206 60 6.13115 60 6.12028 60C6.10942 60 6.0986 60 6.08784 60C6.07707 60 6.06635 60 6.05569 60C6.04502 60 6.0344 60 6.02383 60C6.01326 60 6.00274 60 5.99226 60C5.98179 60 5.97137 60 5.961 60C5.95063 60 5.94031 60 5.93003 60C5.91976 60 5.90954 60 5.89937 60C5.8892 60 5.87908 60 5.86901 60C5.85893 60 5.84892 60 5.83895 60C5.82898 60 5.81906 60 5.80919 60C5.79933 60 5.78951 60 5.77975 60C5.76998 60 5.76027 60 5.75061 60C5.74095 60 5.73134 60 5.72178 60C5.71222 60 5.70272 60 5.69327 60C5.68381 60 5.67441 60 5.66507 60C5.65572 60 5.64642 60 5.63718 60C5.62794 60 5.61875 60 5.60961 60C5.60047 60 5.59139 60 5.58236 60C5.57333 60 5.56435 60 5.55543 60C5.5465 60 5.53763 60 5.52882 60C5.52 60 5.51124 60 5.50253 60C5.49382 60 5.48517 60 5.47657 60C5.46797 60 5.45943 60 5.45094 60C5.44245 60 5.43401 60 5.42563 60C5.41725 60 5.40893 60 5.40065 60C5.39238 60 5.38417 60 5.37601 60C5.36785 60 5.35975 60 5.3517 60C5.34365 60 5.33566 60 5.32772 60C5.31978 60 5.3119 60 5.30408 60C5.29626 60 5.28849 60 5.28078 60C5.27306 60 5.26541 60 5.25781 60C5.25021 60 5.24267 60 5.23519 60C5.22771 60 5.22028 60 5.21291 60C5.20554 60 5.19823 60 5.19097 60C5.18372 60 5.17652 60 5.16938 60C5.16224 60 5.15516 60 5.14814 60C5.14112 60 5.13415 60 5.12725 60C5.12034 60 5.11349 60 5.10671 60C5.09992 60 5.09319 60 5.08652 60C5.07984 60 5.07323 60 5.06668 60C5.06013 60 5.05363 60 5.0472 60C5.04076 60 5.03439 60 5.02808 60C5.02176 60 5.01551 60 5.00931 60C5.00312 60 4.99698 60 4.99091 60C4.98483 60 4.97882 60 4.97287 60C4.96691 60 4.96102 60 4.95519 60C4.94936 60 4.94358 60 4.93787 60C4.93217 60 4.92652 60 4.92093 60C4.91534 60 4.90982 60 4.90435 60C4.89889 60 4.89349 60 4.88814 60C4.8828 60 4.87753 60 4.87231 60C4.86709 60 4.86194 60 4.85685 60C4.85176 60 4.84673 60 4.84176 60C4.83679 60 4.83189 60 4.82705 60C4.82221 60 4.81743 60 4.81272 60C4.808 60 4.80335 60 4.79877 60C4.79418 60 4.78965 60 4.78519 60C4.78073 60 4.77634 60 4.77201 60C4.76767 60 4.76341 60 4.7592 60C4.755 60 4.75086 60 4.74679 60C4.74271 60 4.7387 60 4.73476 60C4.73081 60 4.72693 60 4.72312 60V62C4.72693 62 4.73081 62 4.73476 62C4.7387 62 4.74271 62 4.74679 62C4.75086 62 4.755 62 4.7592 62C4.76341 62 4.76767 62 4.77201 62C4.77634 62 4.78073 62 4.78519 62C4.78965 62 4.79418 62 4.79877 62C4.80335 62 4.808 62 4.81272 62C4.81743 62 4.82221 62 4.82705 62C4.83189 62 4.83679 62 4.84176 62C4.84673 62 4.85176 62 4.85685 62C4.86194 62 4.86709 62 4.87231 62C4.87753 62 4.8828 62 4.88814 62C4.89349 62 4.89889 62 4.90435 62C4.90982 62 4.91534 62 4.92093 62C4.92652 62 4.93217 62 4.93787 62C4.94358 62 4.94936 62 4.95519 62C4.96102 62 4.96691 62 4.97287 62C4.97882 62 4.98483 62 4.99091 62C4.99698 62 5.00312 62 5.00931 62C5.01551 62 5.02176 62 5.02808 62C5.03439 62 5.04076 62 5.0472 62C5.05363 62 5.06013 62 5.06668 62C5.07323 62 5.07984 62 5.08652 62C5.09319 62 5.09992 62 5.10671 62C5.11349 62 5.12034 62 5.12725 62C5.13415 62 5.14112 62 5.14814 62C5.15516 62 5.16224 62 5.16938 62C5.17652 62 5.18372 62 5.19097 62C5.19823 62 5.20554 62 5.21291 62C5.22028 62 5.22771 62 5.23519 62C5.24267 62 5.25021 62 5.25781 62C5.26541 62 5.27306 62 5.28078 62C5.28849 62 5.29626 62 5.30408 62C5.3119 62 5.31978 62 5.32772 62C5.33566 62 5.34365 62 5.3517 62C5.35975 62 5.36785 62 5.37601 62C5.38417 62 5.39238 62 5.40065 62C5.40893 62 5.41725 62 5.42563 62C5.43401 62 5.44245 62 5.45094 62C5.45943 62 5.46797 62 5.47657 62C5.48517 62 5.49382 62 5.50253 62C5.51124 62 5.52 62 5.52882 62C5.53763 62 5.5465 62 5.55543 62C5.56435 62 5.57333 62 5.58236 62C5.59139 62 5.60047 62 5.60961 62C5.61875 62 5.62794 62 5.63718 62C5.64642 62 5.65572 62 5.66507 62C5.67441 62 5.68381 62 5.69327 62C5.70272 62 5.71222 62 5.72178 62C5.73134 62 5.74095 62 5.75061 62C5.76027 62 5.76998 62 5.77975 62C5.78951 62 5.79933 62 5.80919 62C5.81906 62 5.82898 62 5.83895 62C5.84892 62 5.85893 62 5.86901 62C5.87908 62 5.8892 62 5.89937 62C5.90954 62 5.91976 62 5.93003 62C5.94031 62 5.95063 62 5.961 62C5.97137 62 5.98179 62 5.99226 62C6.00274 62 6.01326 62 6.02383 62C6.0344 62 6.04502 62 6.05569 62C6.06635 62 6.07707 62 6.08784 62C6.0986 62 6.10942 62 6.12028 62C6.13115 62 6.14206 62 6.15302 62C6.16398 62 6.17499 62 6.18605 62C6.1971 62 6.20821 62 6.21936 62C6.23051 62 6.24171 62 6.25296 62C6.26421 62 6.2755 62 6.28684 62C6.29818 62 6.30957 62 6.32101 62C6.33245 62 6.34393 62 6.35546 62C6.36699 62 6.37856 62 6.39019 62C6.40181 62 6.41348 62 6.42519 62C6.43691 62 6.44867 62 6.46047 62C6.47228 62 6.48413 62 6.49603 62C6.50793 62 6.51987 62 6.53186 62C6.54385 62 6.55589 62 6.56796 62C6.58004 62 6.59217 62 6.60434 62C6.61651 62 6.62872 62 6.64098 62C6.65324 62 6.66554 62 6.67789 62C6.69023 62 6.70262 62 6.71506 62C6.72749 62 6.73997 62 6.75249 62C6.76502 62 6.77758 62 6.79019 62C6.8028 62 6.81545 62 6.82815 62C6.84085 62 6.85359 62 6.86637 62C6.87915 62 6.89197 62 6.90484 62C6.91771 62 6.93062 62 6.94357 62C6.95652 62 6.96952 62 6.98256 62C6.99559 62 7.00867 62 7.02179 62C7.03491 62 7.04807 62 7.06128 62C7.07448 62 7.08773 62 7.10101 62C7.1143 62 7.12763 62 7.141 62C7.15436 62 7.16777 62 7.18122 62C7.19467 62 7.20817 62 7.2217 62C7.23523 62 7.2488 62 7.26241 62C7.27602 62 7.28968 62 7.30337 62C7.31706 62 7.33079 62 7.34456 62C7.35834 62 7.37215 62 7.386 62C7.39985 62 7.41374 62 7.42767 62C7.4416 62 7.45556 62 7.46957 62C7.48358 62 7.49762 62 7.51171 62C7.52579 62 7.53991 62 7.55408 62C7.56824 62 7.58244 62 7.59667 62C7.61091 62 7.62519 62 7.6395 62C7.65381 62 7.66816 62 7.68255 62C7.69694 62 7.71136 62 7.72583 62C7.74029 62 7.75479 62 7.76933 62C7.78386 62 7.79844 62 7.81305 62C7.82766 62 7.84231 62 7.85699 62C7.87167 62 7.88639 62 7.90115 62C7.91591 62 7.9307 62 7.94553 62C7.96035 62 7.97522 62 7.99012 62C8.00502 62 8.01995 62 8.03492 62C8.04989 62 8.0649 62 8.07994 62C8.09498 62 8.11006 62 8.12517 62C8.14028 62 8.15542 62 8.1706 62C8.18578 62 8.201 62 8.21625 62C8.23149 62 8.24678 62 8.26209 62C8.27741 62 8.29276 62 8.30815 62C8.32353 62 8.33895 62 8.3544 62C8.36985 62 8.38534 62 8.40085 62C8.41637 62 8.43192 62 8.44751 62C8.46309 62 8.47871 62 8.49436 62C8.51001 62 8.52569 62 8.54141 62C8.55712 62 8.57287 62 8.58865 62C8.60443 62 8.62024 62 8.63608 62C8.65192 62 8.6678 62 8.6837 62C8.69961 62 8.71555 62 8.73152 62C8.74749 62 8.76349 62 8.77952 62C8.79555 62 8.81161 62 8.82771 62C8.8438 62 8.85992 62 8.87608 62C8.89223 62 8.90842 62 8.92463 62C8.94085 62 8.95709 62 8.97337 62C8.98964 62 9.00595 62 9.02228 62C9.03862 62 9.05498 62 9.07137 62C9.08777 62 9.10419 62 9.12064 62C9.1371 62 9.15358 62 9.17009 62C9.1866 62 9.20314 62 9.2197 62C9.23627 62 9.25287 62 9.26949 62C9.28612 62 9.30277 62 9.31945 62C9.33613 62 9.35284 62 9.36958 62C9.38631 62 9.40308 62 9.41987 62C9.43666 62 9.45348 62 9.47033 62C9.48717 62 9.50405 62 9.52095 62C9.53785 62 9.55478 62 9.57173 62C9.58869 62 9.60567 62 9.62268 62C9.63968 62 9.65672 62 9.67378 62C9.69084 62 9.70793 62 9.72504 62C9.74215 62 9.75929 62 9.77645 62C9.79362 62 9.81081 62 9.82802 62C9.84524 62 9.86248 62 9.87974 62C9.89701 62 9.9143 62 9.93161 62C9.94893 62 9.96627 62 9.98363 62C10.001 62 10.0184 62 10.0358 62C10.0532 62 10.0706 62 10.0881 62C10.1056 62 10.1231 62 10.1406 62C10.1581 62 10.1756 62 10.1932 62C10.2107 62 10.2283 62 10.2459 62C10.2635 62 10.2811 62 10.2988 62C10.3164 62 10.3341 62 10.3518 62C10.3695 62 10.3872 62 10.405 62C10.4227 62 10.4405 62 10.4582 62C10.476 62 10.4938 62 10.5117 62C10.5295 62 10.5473 62 10.5652 62C10.5831 62 10.601 62 10.6189 62C10.6368 62 10.6547 62 10.6727 62C10.6907 62 10.7086 62 10.7266 62C10.7446 62 10.7626 62 10.7807 62C10.7987 62 10.8168 62 10.8349 62C10.853 62 10.8711 62 10.8892 62C10.9073 62 10.9254 62 10.9436 62C10.9618 62 10.9799 62 10.9981 62C11.0163 62 11.0346 62 11.0528 62C11.071 62 11.0893 62 11.1076 62C11.1258 62 11.1441 62 11.1625 62C11.1808 62 11.1991 62 11.2175 62C11.2358 62 11.2542 62 11.2726 62C11.2909 62 11.3094 62 11.3278 62C11.3462 62 11.3646 62 11.3831 62C11.4016 62 11.42 62 11.4385 62C11.457 62 11.4755 62 11.4941 62C11.5126 62 11.5311 62 11.5497 62C11.5683 62 11.5868 62 11.6054 62C11.624 62 11.6426 62 11.6613 62C11.6799 62 11.6985 62 11.7172 62C11.7359 62 11.7545 62 11.7732 62C11.7919 62 11.8106 62 11.8293 62C11.8481 62 11.8668 62 11.8855 62C11.9043 62 11.9231 62 11.9419 62C11.9606 62 11.9794 62 11.9982 62C12.0171 62 12.0359 62 12.0547 62C12.0736 62 12.0924 62 12.1113 62C12.1302 62 12.149 62 12.1679 62C12.1868 62 12.2057 62 12.2247 62C12.2436 62 12.2625 62 12.2815 62C12.3004 62 12.3194 62 12.3384 62C12.3574 62 12.3763 62 12.3953 62C12.4144 62 12.4334 62 12.4524 62C12.4714 62 12.4905 62 12.5095 62C12.5286 62 12.5476 62 12.5667 62C12.5858 62 12.6049 62 12.624 62C12.6431 62 12.6622 62 12.6813 62C12.7004 62 12.7196 62 12.7387 62C12.7579 62 12.777 62 12.7962 62C12.8154 62 12.8345 62 12.8537 62C12.8729 62 12.8921 62 12.9113 62C12.9305 62 12.9497 62 12.969 62C12.9882 62 13.0074 62 13.0267 62C13.0459 62 13.0652 62 13.0845 62C13.1037 62 13.123 62 13.1423 62C13.1616 62 13.1809 62 13.2002 62C13.2195 62 13.2388 62 13.2581 62C13.2775 62 13.2968 62 13.3161 62C13.3355 62 13.3548 62 13.3742 62C13.3935 62 13.4129 62 13.4323 62C13.4517 62 13.471 62 13.4904 62C13.5098 62 13.5292 62 13.5486 62C13.568 62 13.5874 62 13.6068 62C13.6263 62 13.6457 62 13.6651 62C13.6845 62 13.704 62 13.7234 62C13.7429 62 13.7623 62 13.7818 62C13.8012 62 13.8207 62 13.8402 62C13.8596 62 13.8791 62 13.8986 62C13.9181 62 13.9376 62 13.9571 62C13.9765 62 13.996 62 14.0155 62C14.0351 62 14.0546 62 14.0741 62C14.0936 62 14.1131 62 14.1326 62C14.1521 62 14.1717 62 14.1912 62C14.2107 62 14.2303 62 14.2498 62C14.2694 62 14.2889 62 14.3084 62C14.328 62 14.3475 62 14.3671 62C14.3867 62 14.4062 62 14.4258 62C14.4453 62 14.4649 62 14.4845 62C14.504 62 14.5236 62 14.5432 62C14.5628 62 14.5823 62 14.6019 62C14.6215 62 14.6411 62 14.6607 62C14.6802 62 14.6998 62 14.7194 62C14.739 62 14.7586 62 14.7782 62C14.7978 62 14.8174 62 14.837 62C14.8566 62 14.8762 62 14.8958 62C14.9153 62 14.9349 62 14.9545 62C14.9741 62 14.9937 62 15.0133 62C15.0329 62 15.0525 62 15.0721 62C15.0917 62 15.1114 62 15.131 62C15.1506 62 15.1702 62 15.1898 62C15.2094 62 15.229 62 15.2486 62C15.2682 62 15.2878 62 15.3074 62C15.327 62 15.3466 62 15.3662 62C15.3858 62 15.4054 62 15.4249 62C15.4445 62 15.4641 62 15.4837 62C15.5033 62 15.5229 62 15.5425 62C15.5621 62 15.5817 62 15.6013 62C15.6208 62 15.6404 62 15.66 62C15.6796 62 15.6992 62 15.7187 62C15.7383 62 15.7579 62 15.7775 62C15.797 62 15.8166 62 15.8362 62C15.8557 62 15.8753 62 15.8949 62C15.9144 62 15.934 62 15.9535 62C15.9731 62 15.9926 62 16.0122 62C16.0317 62 16.0512 62 16.0708 62C16.0903 62 16.1098 62 16.1294 62C16.1489 62 16.1684 62 16.1879 62C16.2074 62 16.2269 62 16.2465 62C16.266 62 16.2855 62 16.305 62C16.3245 62 16.3439 62 16.3634 62C16.3829 62 16.4024 62 16.4219 62C16.4413 62 16.4608 62 16.4803 62C16.4997 62 16.5192 62 16.5386 62C16.5581 62 16.5775 62 16.597 62C16.6164 62 16.6358 62 16.6552 62C16.6747 62 16.6941 62 16.7135 62C16.7329 62 16.7523 62 16.7717 62C16.7911 62 16.8105 62 16.8298 62C16.8492 62 16.8686 62 16.888 62C16.9073 62 16.9267 62 16.946 62C16.9654 62 16.9847 62 17.004 62C17.0234 62 17.0427 62 17.062 62C17.0813 62 17.1006 62 17.1199 62C17.1392 62 17.1585 62 17.1778 62C17.197 62 17.2163 62 17.2355 62C17.2548 62 17.2741 62 17.2933 62C17.3125 62 17.3318 62 17.351 62C17.3702 62 17.3894 62 17.4086 62C17.4278 62 17.447 62 17.4661 62C17.4853 62 17.5045 62 17.5236 62C17.5428 62 17.5619 62 17.5811 62C17.6002 62 17.6193 62 17.6384 62C17.6575 62 17.6766 62 17.6957 62C17.7148 62 17.7339 62 17.7529 62C17.772 62 17.791 62 17.8101 62C17.8291 62 17.8481 62 17.8671 62C17.8861 62 17.9051 62 17.9241 62C17.9431 62 17.9621 62 17.9811 62C18 62 18.019 62 18.0379 62C18.0568 62 18.0757 62 18.0946 62C18.1136 62 18.1324 62 18.1513 62C18.1702 62 18.1891 62 18.2079 62C18.2268 62 18.2456 62 18.2644 62C18.2832 62 18.3021 62 18.3208 62C18.3396 62 18.3584 62 18.3772 62C18.3959 62 18.4147 62 18.4334 62C18.4522 62 18.4709 62 18.4896 62C18.5083 62 18.527 62 18.5456 62C18.5643 62 18.583 62 18.6016 62C18.6202 62 18.6388 62 18.6575 62C18.6761 62 18.6946 62 18.7132 62C18.7318 62 18.7503 62 18.7689 62C18.7874 62 18.8059 62 18.8245 62C18.843 62 18.8614 62 18.8799 62C18.8984 62 18.9168 62 18.9353 62C18.9537 62 18.9721 62 18.9905 62C19.0089 62 19.0273 62 19.0457 62C19.064 62 19.0824 62 19.1007 62C19.119 62 19.1373 62 19.1556 62C19.1739 62 19.1922 62 19.2104 62C19.2287 62 19.2469 62 19.2651 62C19.2833 62 19.3015 62 19.3197 62C19.3379 62 19.356 62 19.3742 62C19.3923 62 19.4104 62 19.4285 62C19.4466 62 19.4647 62 19.4827 62C19.5008 62 19.5188 62 19.5368 62C19.5548 62 19.5728 62 19.5908 62C19.6088 62 19.6267 62 19.6447 62C19.6626 62 19.6805 62 19.6984 62C19.7163 62 19.7341 62 19.752 62C19.7698 62 19.7876 62 19.8054 62C19.8232 62 19.841 62 19.8588 62C19.8765 62 19.8942 62 19.912 62C19.9297 62 19.9473 62 19.965 62C19.9827 62 20.0003 62 20.0179 62C20.0356 62 20.0532 62 20.0707 62C20.0883 62 20.1058 62 20.1234 62C20.1409 62 20.1584 62 20.1759 62C20.1933 62 20.2108 62 20.2282 62C20.2457 62 20.2631 62 20.2804 62C20.2978 62 20.3152 62 20.3325 62C20.3498 62 20.3671 62 20.3844 62C20.4017 62 20.419 62 20.4362 62C20.4534 62 20.4706 62 20.4878 62C20.505 62 20.5222 62 20.5393 62C20.5564 62 20.5735 62 20.5906 62C20.6077 62 20.6247 62 20.6417 62C20.6588 62 20.6758 62 20.6927 62C20.7097 62 20.7267 62 20.7436 62C20.7605 62 20.7774 62 20.7942 62C20.8111 62 20.828 62 20.8448 62C20.8616 62 20.8784 62 20.8951 62C20.9119 62 20.9286 62 20.9453 62C20.962 62 20.9787 62 20.9953 62C21.0119 62 21.0286 62 21.0451 62C21.0617 62 21.0783 62 21.0948 62C21.1113 62 21.1278 62 21.1443 62C21.1608 62 21.1772 62 21.1936 62C21.2101 62 21.2264 62 21.2428 62C21.2591 62 21.2755 62 21.2918 62C21.3081 62 21.3243 62 21.3406 62C21.3568 62 21.373 62 21.3892 62C21.4053 62 21.4215 62 21.4376 62C21.4537 62 21.4698 62 21.4859 62C21.5019 62 21.5179 62 21.5339 62C21.5499 62 21.5659 62 21.5818 62C21.5977 62 21.6136 62 21.6295 62C21.6453 62 21.6612 62 21.677 62C21.6928 62 21.7085 62 21.7243 62C21.74 62 21.7557 62 21.7714 62C21.7871 62 21.8027 62 21.8183 62C21.8339 62 21.8495 62 21.865 62C21.8806 62 21.8961 62 21.9115 62C21.927 62 21.9424 62 21.9579 62C21.9733 62 21.9886 62 22.004 62C22.0193 62 22.0346 62 22.0499 62C22.0652 62 22.0804 62 22.0956 62C22.1108 62 22.126 62 22.1411 62C22.1562 62 22.1713 62 22.1864 62C22.2015 62 22.2165 62 22.2315 62C22.2465 62 22.2614 62 22.2764 62C22.2913 62 22.3062 62 22.321 62C22.3359 62 22.3507 62 22.3655 62C22.3802 62 22.395 62 22.4097 62C22.4244 62 22.4391 62 22.4537 62C22.4683 62 22.4829 62 22.4975 62C22.5121 62 22.5266 62 22.5411 62C22.5556 62 22.57 62 22.5844 62C22.5988 62 22.6132 62 22.6275 62C22.6419 62 22.6562 62 22.6704 62C22.6847 62 22.6989 62 22.7131 62C22.7273 62 22.7414 62 22.7556 62C22.7697 62 22.7837 62 22.7978 62C22.8118 62 22.8258 62 22.8397 62C22.8537 62 22.8676 62 22.8815 62C22.8954 62 22.9092 62 22.923 62C22.9368 62 22.9506 62 22.9643 62C22.978 62 22.9917 62 23.0053 62C23.0189 62 23.0325 62 23.0461 62C23.0597 62 23.0732 62 23.0867 62C23.1001 62 23.1136 62 23.127 62C23.1404 62 23.1537 62 23.167 62C23.1803 62 23.1936 62 23.2068 62C23.2201 62 23.2333 62 23.2464 62C23.2596 62 23.2727 62 23.2857 62C23.2988 62 23.3118 62 23.3248 62C23.3378 62 23.3507 62 23.3636 62C23.3765 62 23.3893 62 23.4022 62C23.415 62 23.4277 62 23.4405 62C23.4532 62 23.4659 62 23.4785 62C23.4911 62 23.5037 62 23.5163 62C23.5288 62 23.5413 62 23.5538 62C23.5663 62 23.5787 62 23.5911 62C23.6034 62 23.6158 62 23.6281 62C23.6403 62 23.6526 62 23.6648 62C23.677 62 23.6891 62 23.7012 62C23.7134 62 23.7254 62 23.7374 62C23.7495 62 23.7614 62 23.7734 62C23.7853 62 23.7972 62 23.809 62C23.8208 62 23.8326 62 23.8444 62C23.8561 62 23.8678 62 23.8795 62C23.8911 62 23.9027 62 23.9143 62C23.9258 62 23.9374 62 23.9488 62C23.9603 62 23.9717 62 23.9831 62C23.9945 62 24.0058 62 24.0171 62C24.0283 62 24.0396 62 24.0508 62C24.0619 62 24.0731 62 24.0842 62C24.0952 62 24.1063 62 24.1173 62C24.1283 62 24.1392 62 24.1501 62C24.161 62 24.1719 62 24.1826 62C24.1934 62 24.2042 62 24.2149 62C24.2256 62 24.2362 62 24.2469 62C24.2575 62 24.268 62 24.2785 62C24.289 62 24.2995 62 24.3099 62C24.3203 62 24.3306 62 24.3409 62C24.3512 62 24.3615 62 24.3717 62C24.3819 62 24.3921 62 24.4022 62C24.4123 62 24.4223 62 24.4323 62C24.4423 62 24.4523 62 24.4622 62C24.4721 62 24.4819 62 24.4917 62C24.5015 62 24.5113 62 24.521 62C24.5306 62 24.5403 62 24.5499 62C24.5595 62 24.569 62 24.5785 62C24.588 62 24.5974 62 24.6068 62C24.6162 62 24.6255 62 24.6348 62C24.6441 62 24.6533 62 24.6625 62C24.6716 62 24.6807 62 24.6898 62C24.6989 62 24.7079 62 24.7169 62C24.7258 62 24.7347 62 24.7436 62C24.7524 62 24.7612 62 24.77 62C24.7787 62 24.7874 62 24.796 62C24.8047 62 24.8132 62 24.8218 62C24.8303 62 24.8388 62 24.8472 62C24.8556 62 24.864 62 24.8723 62C24.8806 62 24.8888 62 24.897 62C24.9052 62 24.9133 62 24.9214 62C24.9295 62 24.9375 62 24.9455 62C24.9535 62 24.9614 62 24.9693 62C24.9771 62 24.9849 62 24.9927 62C25.0004 62 25.0081 62 25.0158 62C25.0234 62 25.031 62 25.0385 62C25.046 62 25.0535 62 25.0609 62C25.0683 62 25.0756 62 25.0829 62C25.0902 62 25.0975 62 25.1046 62C25.1118 62 25.1189 62 25.126 62C25.133 62 25.14 62 25.147 62C25.1539 62 25.1608 62 25.1676 62C25.1745 62 25.1812 62 25.188 62C25.1947 62 25.2013 62 25.2079 62C25.2145 62 25.221 62 25.2275 62C25.234 62 25.2404 62 25.2467 62C25.2531 62 25.2594 62 25.2656 62C25.2719 62 25.278 62 25.2841 62C25.2903 62 25.2963 62 25.3023 62C25.3083 62 25.3142 62 25.3201 62C25.326 62 25.3318 62 25.3375 62C25.3433 62 25.349 62 25.3546 62C25.3602 62 25.3658 62 25.3713 62C25.3768 62 25.3822 62 25.3876 62C25.393 62 25.3983 62 25.4036 62C25.4088 62 25.414 62 25.4192 62C25.4243 62 25.4294 62 25.4344 62C25.4394 62 25.4443 62 25.4492 62C25.4541 62 25.4589 62 25.4637 62C25.4684 62 25.4731 62 25.4777 62C25.4824 62 25.4869 62 25.4914 62C25.4959 62 25.5004 62 25.5047 62C25.5091 62 25.5134 62 25.5177 62C25.5219 62 25.5261 62 25.5302 62C25.5343 62 25.5384 62 25.5424 62C25.5463 62 25.5503 62 25.5541 62C25.558 62 25.5618 62 25.5655 62C25.5692 62 25.5729 62 25.5765 62C25.5801 62 25.5836 62 25.5871 62C25.5905 62 25.5939 62 25.5973 62C25.6006 62 25.6039 62 25.6071 62C25.6103 62 25.6134 62 25.6165 62C25.6195 62 25.6225 62 25.6255 62C25.6284 62 25.6313 62 25.6341 62C25.6369 62 25.6396 62 25.6422 62C25.6449 62 25.6475 62 25.65 62C25.6526 62 25.655 62 25.6574 62C25.6598 62 25.6621 62 25.6644 62C25.6666 62 25.6688 62 25.6709 62C25.6731 62 25.6751 62 25.6771 62C25.6791 62 25.681 62 25.6828 62C25.6847 62 25.6865 62 25.6882 62C25.6899 62 25.6915 62 25.6931 62C25.6946 62 25.6961 62 25.6975 62C25.699 62 25.7003 62 25.7016 62C25.7029 62 25.7041 62 25.7053 62C25.7064 62 25.7075 62 25.7085 62C25.7095 62 25.7104 62 25.7113 62C25.7121 62 25.7129 62 25.7137 62C25.7144 62 25.715 62 25.7156 62C25.7162 62 25.7167 62 25.7171 62C25.7176 62 25.7179 62 25.7182 62C25.7185 62 25.7187 62 25.7189 62C25.719 62 25.7191 62 25.7191 61ZM4.72312 60C3.32229 60 2 58.6777 2 57.2769H5.96046e-08C5.96046e-08 59.7823 2.21772 62 4.72312 62V60ZM2 57.2769C2 57.2731 2 57.2691 2 57.2649C2 57.2607 2 57.2563 2 57.2518C2 57.2472 2 57.2425 2 57.2376C2 57.2327 2 57.2275 2 57.2223C2 57.217 2 57.2115 2 57.2058C2 57.2002 2 57.1943 2 57.1883C2 57.1823 2 57.1761 2 57.1697C2 57.1633 2 57.1567 2 57.15C2 57.1432 2 57.1363 2 57.1292C2 57.1221 2 57.1148 2 57.1073C2 57.0998 2 57.0922 2 57.0844C2 57.0765 2 57.0685 2 57.0604C2 57.0522 2 57.0438 2 57.0353C2 57.0267 2 57.018 2 57.0091C2 57.0002 2 56.9912 2 56.9819C2 56.9727 2 56.9633 2 56.9537C2 56.9441 2 56.9343 2 56.9244C2 56.9144 2 56.9043 2 56.894C2 56.8837 2 56.8733 2 56.8626C2 56.852 2 56.8412 2 56.8302C2 56.8192 2 56.8081 2 56.7967C2 56.7854 2 56.7739 2 56.7622C2 56.7506 2 56.7387 2 56.7267C2 56.7147 2 56.7026 2 56.6902C2 56.6779 2 56.6654 2 56.6527C2 56.64 2 56.6272 2 56.6141C2 56.6011 2 56.5879 2 56.5746C2 56.5612 2 56.5477 2 56.534C2 56.5203 2 56.5065 2 56.4925C2 56.4785 2 56.4643 2 56.4499C2 56.4356 2 56.4211 2 56.4064C2 56.3918 2 56.3769 2 56.3619C2 56.3469 2 56.3318 2 56.3164C2 56.3011 2 56.2856 2 56.27C2 56.2543 2 56.2385 2 56.2226C2 56.2066 2 56.1905 2 56.1742C2 56.1579 2 56.1414 2 56.1248C2 56.1082 2 56.0914 2 56.0745C2 56.0576 2 56.0405 2 56.0233C2 56.006 2 55.9886 2 55.9711C2 55.9535 2 55.9358 2 55.9179C2 55.9 2 55.882 2 55.8638C2 55.8456 2 55.8273 2 55.8088C2 55.7903 2 55.7717 2 55.7529C2 55.7341 2 55.7151 2 55.696C2 55.6769 2 55.6576 2 55.6382C2 55.6188 2 55.5992 2 55.5795C2 55.5598 2 55.5399 2 55.5199C2 55.4999 2 55.4797 2 55.4594C2 55.4391 2 55.4186 2 55.398C2 55.3773 2 55.3566 2 55.3356C2 55.3147 2 55.2937 2 55.2724C2 55.2512 2 55.2298 2 55.2083C2 55.1868 2 55.1652 2 55.1433C2 55.1215 2 55.0996 2 55.0775C2 55.0554 2 55.0331 2 55.0107C2 54.9884 2 54.9658 2 54.9431C2 54.9205 2 54.8976 2 54.8747C2 54.8517 2 54.8286 2 54.8053C2 54.7821 2 54.7587 2 54.7351C2 54.7116 2 54.6879 2 54.6641C2 54.6403 2 54.6163 2 54.5922C2 54.5681 2 54.5438 2 54.5195C2 54.4951 2 54.4705 2 54.4459C2 54.4212 2 54.3964 2 54.3715C2 54.3465 2 54.3214 2 54.2962C2 54.271 2 54.2456 2 54.2201C2 54.1946 2 54.169 2 54.1432C2 54.1175 2 54.0916 2 54.0655C2 54.0395 2 54.0133 2 53.987C2 53.9607 2 53.9343 2 53.9077C2 53.8811 2 53.8544 2 53.8276C2 53.8007 2 53.7737 2 53.7466C2 53.7195 2 53.6923 2 53.6649C2 53.6375 2 53.61 2 53.5824C2 53.5547 2 53.527 2 53.4991C2 53.4712 2 53.4431 2 53.415C2 53.3868 2 53.3585 2 53.3301C2 53.3017 2 53.2732 2 53.2445C2 53.2158 2 53.187 2 53.1581C2 53.1292 2 53.1001 2 53.0709C2 53.0417 2 53.0124 2 52.983C2 52.9536 2 52.924 2 52.8943C2 52.8646 2 52.8348 2 52.8049C2 52.7749 2 52.7449 2 52.7147C2 52.6845 2 52.6542 2 52.6238C2 52.5933 2 52.5628 2 52.5321C2 52.5014 2 52.4707 2 52.4397C2 52.4088 2 52.3778 2 52.3466C2 52.3155 2 52.2842 2 52.2528C2 52.2214 2 52.1899 2 52.1582C2 52.1266 2 52.0948 2 52.0629C2 52.0311 2 51.9991 2 51.967C2 51.9348 2 51.9026 2 51.8703C2 51.8379 2 51.8055 2 51.7729C2 51.7403 2 51.7076 2 51.6748C2 51.642 2 51.6091 2 51.576C2 51.543 2 51.5098 2 51.4765C2 51.4433 2 51.4099 2 51.3764C2 51.3429 2 51.3093 2 51.2756C2 51.2418 2 51.208 2 51.1741C2 51.1401 2 51.1061 2 51.0719C2 51.0377 2 51.0034 2 50.969C2 50.9347 2 50.9002 2 50.8655C2 50.8309 2 50.7962 2 50.7614C2 50.7266 2 50.6916 2 50.6566C2 50.6215 2 50.5864 2 50.5511C2 50.5159 2 50.4805 2 50.445C2 50.4095 2 50.374 2 50.3383C2 50.3026 2 50.2668 2 50.2309C2 50.195 2 50.159 2 50.1229C2 50.0868 2 50.0506 2 50.0143C2 49.978 2 49.9415 2 49.905C2 49.8685 2 49.8319 2 49.7951C2 49.7584 2 49.7216 2 49.6847C2 49.6477 2 49.6107 2 49.5736C2 49.5364 2 49.4992 2 49.4619C2 49.4246 2 49.3871 2 49.3496C2 49.3121 2 49.2744 2 49.2367C2 49.199 2 49.1612 2 49.1232C2 49.0853 2 49.0473 2 49.0092C2 48.9711 2 48.9328 2 48.8945C2 48.8562 2 48.8178 2 48.7793C2 48.7408 2 48.7022 2 48.6635C2 48.6248 2 48.5861 2 48.5472C2 48.5083 2 48.4693 2 48.4303C2 48.3912 2 48.352 2 48.3128C2 48.2735 2 48.2342 2 48.1947C2 48.1553 2 48.1158 2 48.0762C2 48.0365 2 47.9968 2 47.957C2 47.9172 2 47.8773 2 47.8374C2 47.7974 2 47.7573 2 47.7172C2 47.677 2 47.6368 2 47.5964C2 47.5561 2 47.5157 2 47.4752C2 47.4347 2 47.3941 2 47.3534C2 47.3127 2 47.2719 2 47.2311C2 47.1902 2 47.1493 2 47.1083C2 47.0672 2 47.0261 2 46.9849C2 46.9437 2 46.9025 2 46.8611C2 46.8197 2 46.7783 2 46.7368C2 46.6952 2 46.6536 2 46.6119C2 46.5702 2 46.5285 2 46.4866C2 46.4447 2 46.4028 2 46.3608C2 46.3188 2 46.2767 2 46.2345C2 46.1923 2 46.1501 2 46.1077C2 46.0654 2 46.023 2 45.9805C2 45.938 2 45.8954 2 45.8528C2 45.8101 2 45.7674 2 45.7246C2 45.6818 2 45.6389 2 45.5959C2 45.553 2 45.51 2 45.4669C2 45.4237 2 45.3806 2 45.3373C2 45.294 2 45.2507 2 45.2073C2 45.1639 2 45.1204 2 45.0769C2 45.0333 2 44.9897 2 44.946C2 44.9023 2 44.8585 2 44.8147C2 44.7708 2 44.7269 2 44.6829C2 44.639 2 44.5949 2 44.5508C2 44.5067 2 44.4625 2 44.4182C2 44.3739 2 44.3296 2 44.2852C2 44.2408 2 44.1963 2 44.1518C2 44.1072 2 44.0626 2 44.018C2 43.9733 2 43.9285 2 43.8837C2 43.8389 2 43.7941 2 43.7491C2 43.7042 2 43.6592 2 43.6141C2 43.569 2 43.5239 2 43.4787C2 43.4335 2 43.3882 2 43.3429C2 43.2976 2 43.2522 2 43.2067C2 43.1613 2 43.1158 2 43.0702C2 43.0246 2 42.979 2 42.9333C2 42.8876 2 42.8418 2 42.796C2 42.7502 2 42.7043 2 42.6584C2 42.6124 2 42.5664 2 42.5204C2 42.4743 2 42.4282 2 42.382C2 42.3358 2 42.2896 2 42.2433C2 42.197 2 42.1506 2 42.1042C2 42.0578 2 42.0114 2 41.9649C2 41.9183 2 41.8718 2 41.8251C2 41.7785 2 41.7318 2 41.6851C2 41.6383 2 41.5915 2 41.5447C2 41.4978 2 41.4509 2 41.404C2 41.357 2 41.31 2 41.2629C2 41.2159 2 41.1688 2 41.1216C2 41.0744 2 41.0272 2 40.98C2 40.9327 2 40.8854 2 40.838C2 40.7906 2 40.7432 2 40.6958C2 40.6483 2 40.6008 2 40.5532C2 40.5056 2 40.458 2 40.4104C2 40.3627 2 40.315 2 40.2672C2 40.2195 2 40.1717 2 40.1238C2 40.076 2 40.0281 2 39.9801C2 39.9322 2 39.8842 2 39.8362C2 39.7882 2 39.7401 2 39.692C2 39.6438 2 39.5957 2 39.5475C2 39.4993 2 39.451 2 39.4027C2 39.3544 2 39.3061 2 39.2577C2 39.2093 2 39.1609 2 39.1124C2 39.064 2 39.0155 2 38.9669C2 38.9184 2 38.8698 2 38.8212C2 38.7726 2 38.7239 2 38.6752C2 38.6265 2 38.5778 2 38.529C2 38.4802 2 38.4314 2 38.3825C2 38.3337 2 38.2848 2 38.2359C2 38.1869 2 38.138 2 38.089C2 38.04 2 37.9909 2 37.9419C2 37.8928 2 37.8437 2 37.7945C2 37.7454 2 37.6962 2 37.647C2 37.5978 2 37.5486 2 37.4993C2 37.45 2 37.4007 2 37.3514C2 37.302 2 37.2527 2 37.2033C2 37.1538 2 37.1044 2 37.0549C2 37.0055 2 36.956 2 36.9065C2 36.8569 2 36.8074 2 36.7578C2 36.7082 2 36.6586 2 36.6089C2 36.5593 2 36.5096 2 36.4599C2 36.4102 2 36.3605 2 36.3107C2 36.261 2 36.2112 2 36.1614C2 36.1116 2 36.0617 2 36.0119C2 35.962 2 35.9121 2 35.8622C2 35.8123 2 35.7624 2 35.7124C2 35.6625 2 35.6125 2 35.5625C2 35.5125 2 35.4624 2 35.4124C2 35.3623 2 35.3123 2 35.2622C2 35.2121 2 35.162 2 35.1118C2 35.0617 2 35.0115 2 34.9613C2 34.9112 2 34.861 2 34.8107C2 34.7605 2 34.7103 2 34.66C2 34.6098 2 34.5595 2 34.5092C2 34.4589 2 34.4086 2 34.3582C2 34.3079 2 34.2576 2 34.2072C2 34.1568 2 34.1064 2 34.0561C2 34.0057 2 33.9552 2 33.9048C2 33.8544 2 33.8039 2 33.7535C2 33.703 2 33.6526 2 33.6021C2 33.5516 2 33.5011 2 33.4506C2 33.4001 2 33.3495 2 33.299C2 33.2485 2 33.1979 2 33.1473C2 33.0968 2 33.0462 2 32.9956C2 32.945 2 32.8945 2 32.8438C2 32.7932 2 32.7426 2 32.692C2 32.6414 2 32.5908 2 32.5401C2 32.4895 2 32.4388 2 32.3882C2 32.3375 2 32.2868 2 32.2362C2 32.1855 2 32.1348 2 32.0841C2 32.0335 2 31.9828 2 31.9321C2 31.8814 2 31.8307 2 31.78C2 31.7293 2 31.6786 2 31.6278C2 31.5771 2 31.5264 2 31.4757C2 31.425 2 31.3742 2 31.3235C2 31.2728 2 31.2221 2 31.1713C2 31.1206 2 31.0699 2 31.0191C2 30.9684 2 30.9177 2 30.8669C2 30.8162 2 30.7655 2 30.7147C2 30.664 2 30.6132 2 30.5625C2 30.5118 2 30.461 2 30.4103C2 30.3596 2 30.3089 2 30.2581C2 30.2074 2 30.1567 2 30.106C2 30.0552 2 30.0045 2 29.9538C2 29.9031 2 29.8524 2 29.8017C2 29.751 2 29.7003 2 29.6496C2 29.5989 2 29.5482 2 29.4975C2 29.4469 2 29.3962 2 29.3455C2 29.2949 2 29.2442 2 29.1936C2 29.1429 2 29.0923 2 29.0416C2 28.991 2 28.9404 2 28.8897C2 28.8391 2 28.7885 2 28.7379C2 28.6873 2 28.6367 2 28.5862C2 28.5356 2 28.485 2 28.4345C2 28.3839 2 28.3334 2 28.2829C2 28.2323 2 28.1818 2 28.1313C2 28.0808 2 28.0303 2 27.9798C2 27.9294 2 27.8789 2 27.8284C2 27.778 2 27.7276 2 27.6771C2 27.6267 2 27.5763 2 27.5259C2 27.4755 2 27.4252 2 27.3748C2 27.3245 2 27.2741 2 27.2238C2 27.1735 2 27.1232 2 27.0729C2 27.0226 2 26.9724 2 26.9221C2 26.8719 2 26.8216 2 26.7714C2 26.7212 2 26.671 2 26.6209C2 26.5707 2 26.5206 2 26.4704C2 26.4203 2 26.3702 2 26.3201C2 26.27 2 26.22 2 26.1699C2 26.1199 2 26.0699 2 26.0199C2 25.9699 2 25.92 2 25.87C2 25.8201 2 25.7701 2 25.7203C2 25.6704 2 25.6205 2 25.5706C2 25.5208 2 25.471 2 25.4212C2 25.3714 2 25.3216 2 25.2719C2 25.2222 2 25.1725 2 25.1228C2 25.0731 2 25.0234 2 24.9738C2 24.9242 2 24.8746 2 24.825C2 24.7755 2 24.7259 2 24.6764C2 24.6269 2 24.5774 2 24.528C2 24.4785 2 24.4291 2 24.3798C2 24.3304 2 24.281 2 24.2317C2 24.1824 2 24.1331 2 24.0838C2 24.0346 2 23.9854 2 23.9362C2 23.887 2 23.8378 2 23.7887C2 23.7396 2 23.6905 2 23.6415C2 23.5924 2 23.5434 2 23.4944C2 23.4455 2 23.3965 2 23.3476C2 23.2987 2 23.2499 2 23.201C2 23.1522 2 23.1034 2 23.0547C2 23.0059 2 22.9572 2 22.9085C2 22.8598 2 22.8112 2 22.7626C2 22.714 2 22.6655 2 22.6169C2 22.5684 2 22.52 2 22.4715C2 22.4231 2 22.3747 2 22.3263C2 22.278 2 22.2297 2 22.1814C2 22.1332 2 22.0849 2 22.0368C2 21.9886 2 21.9404 2 21.8924C2 21.8443 2 21.7962 2 21.7482C2 21.7002 2 21.6523 2 21.6043C2 21.5564 2 21.5086 2 21.4608C2 21.4129 2 21.3652 2 21.3174C2 21.2697 2 21.222 2 21.1744C2 21.1268 2 21.0792 2 21.0317C2 20.9841 2 20.9367 2 20.8892C2 20.8418 2 20.7944 2 20.7471C2 20.6997 2 20.6525 2 20.6052C2 20.558 2 20.5108 2 20.4637C2 20.4165 2 20.3695 2 20.3224C2 20.2754 2 20.2284 2 20.1815C2 20.1346 2 20.0877 2 20.0409C2 19.9941 2 19.9474 2 19.9007C2 19.8539 2 19.8073 2 19.7607C2 19.7141 2 19.6676 2 19.6211C2 19.5746 2 19.5282 2 19.4818C2 19.4354 2 19.3891 2 19.3429C2 19.2966 2 19.2504 2 19.2043C2 19.1582 2 19.1121 2 19.0661C2 19.02 2 18.9741 2 18.9282C2 18.8823 2 18.8364 2 18.7906C2 18.7449 2 18.6991 2 18.6535C2 18.6078 2 18.5622 2 18.5167C2 18.4712 2 18.4257 2 18.3803C2 18.3349 2 18.2895 2 18.2442C2 18.199 2 18.1537 2 18.1086C2 18.0634 2 18.0183 2 17.9733C2 17.9283 2 17.8833 2 17.8384C2 17.7935 2 17.7487 2 17.7039C2 17.6592 2 17.6145 2 17.5699C2 17.5252 2 17.4807 2 17.4362C2 17.3917 2 17.3473 2 17.3029C2 17.2585 2 17.2143 2 17.17C2 17.1258 2 17.0817 2 17.0376C2 16.9935 2 16.9495 2 16.9056C2 16.8616 2 16.8178 2 16.774C2 16.7302 2 16.6865 2 16.6428C2 16.5992 2 16.5556 2 16.5121C2 16.4686 2 16.4252 2 16.3818C2 16.3384 2 16.2952 2 16.252C2 16.2087 2 16.1656 2 16.1226C2 16.0795 2 16.0365 2 15.9936C2 15.9507 2 15.9079 2 15.8651C2 15.8224 2 15.7797 2 15.7371C2 15.6945 2 15.652 2 15.6096C2 15.5671 2 15.5247 2 15.4825C2 15.4402 2 15.398 2 15.3559C2 15.3137 2 15.2717 2 15.2297C2 15.1878 2 15.1459 2 15.1041C2 15.0623 2 15.0206 2 14.9789C2 14.9373 2 14.8957 2 14.8543C2 14.8128 2 14.7714 2 14.7301C2 14.6888 2 14.6476 2 14.6064C2 14.5653 2 14.5242 2 14.4833C2 14.4423 2 14.4014 2 14.3606C2 14.3198 2 14.2791 2 14.2385C2 14.1979 2 14.1573 2 14.1169C2 14.0764 2 14.0361 2 13.9958C2 13.9555 2 13.9153 2 13.8752C2 13.8351 2 13.7951 2 13.7552C2 13.7153 2 13.6755 2 13.6357C2 13.596 2 13.5564 2 13.5168C2 13.4772 2 13.4378 2 13.3984C2 13.359 2 13.3197 2 13.2806C2 13.2414 2 13.2023 2 13.1633C2 13.1243 2 13.0853 2 13.0465C2 13.0077 2 12.969 2 12.9304C2 12.8917 2 12.8532 2 12.8148C2 12.7763 2 12.738 2 12.6998C2 12.6615 2 12.6234 2 12.5853C2 12.5473 2 12.5093 2 12.4714C2 12.4336 2 12.3958 2 12.3582C2 12.3205 2 12.2829 2 12.2455C2 12.208 2 12.1707 2 12.1334C2 12.0961 2 12.059 2 12.0219C2 11.9848 2 11.9479 2 11.911C2 11.8742 2 11.8374 2 11.8008C2 11.7641 2 11.7275 2 11.6911C2 11.6546 2 11.6183 2 11.5821C2 11.5458 2 11.5097 2 11.4736C2 11.4376 2 11.4017 2 11.3658C2 11.33 2 11.2943 2 11.2587C2 11.2231 2 11.1876 2 11.1522C2 11.1168 2 11.0815 2 11.0463C2 11.0111 2 10.976 2 10.941C2 10.9061 2 10.8712 2 10.8364C2 10.8017 2 10.767 2 10.7325C2 10.698 2 10.6635 2 10.6292C2 10.5949 2 10.5607 2 10.5266C2 10.4925 2 10.4585 2 10.4247C2 10.3908 2 10.357 2 10.3234C2 10.2897 2 10.2562 2 10.2228C2 10.1894 2 10.1561 2 10.1229C2 10.0897 2 10.0566 2 10.0236C2 9.99066 2 9.95782 2 9.92508C2 9.89235 2 9.85973 2 9.82723C2 9.79473 2 9.76234 2 9.73007C2 9.69781 2 9.66566 2 9.63362C2 9.60159 2 9.56968 2 9.53788C2 9.50608 2 9.47441 2 9.44285C2 9.41129 2 9.37985 2 9.34853C2 9.31721 2 9.28601 2 9.25494C2 9.22386 2 9.1929 2 9.16207C2 9.13123 2 9.10052 2 9.06992C2 9.03933 2 9.00886 2 8.97852C2 8.94817 2 8.91795 2 8.88785C2 8.85775 2 8.82777 2 8.79792C2 8.76807 2 8.73835 2 8.70875C2 8.67914 2 8.64967 2 8.62032C2 8.59097 2 8.56175 2 8.53265C2 8.50355 2 8.47458 2 8.44574C2 8.4169 2 8.38818 2 8.35959C2 8.33101 2 8.30255 2 8.27422C2 8.24589 2 8.21769 2 8.18962C2 8.16155 2 8.13361 2 8.1058C2 8.07799 2 8.05031 2 8.02276C2 7.99521 2 7.96779 2 7.94051C2 7.91322 2 7.88607 2 7.85905C2 7.83203 2 7.80514 2 7.77838C2 7.75163 2 7.72501 2 7.69852C2 7.67203 2 7.64568 2 7.61946C2 7.59325 2 7.56716 2 7.54122C2 7.51527 2 7.48946 2 7.46378C2 7.43811 2 7.41257 2 7.38717C2 7.36177 2 7.3365 2 7.31138C2 7.28625 2 7.26126 2 7.23641C2 7.21156 2 7.18685 2 7.16228C2 7.13771 2 7.11328 2 7.08899C2 7.0647 2 7.04054 2 7.01653C2 6.99252 2 6.96865 2 6.94492C2 6.9212 2 6.89761 2 6.87417C2 6.85072 2 6.82742 2 6.80426C2 6.7811 2 6.75809 2 6.73521C2 6.71234 2 6.68962 2 6.66703C2 6.64445 2 6.62201 2 6.59972C2 6.57742 2 6.55528 2 6.53327C2 6.51127 2 6.48942 2 6.46771C2 6.446 2 6.42444 2 6.40302C2 6.38161 2 6.36034 2 6.33922C2 6.3181 2 6.29713 2 6.27631C2 6.25549 2 6.23482 2 6.2143C2 6.19378 2 6.1734 2 6.15318C2 6.13296 2 6.11289 2 6.09297C2 6.07305 2 6.05328 2 6.03366C2 6.01405 2 5.99458 2 5.97527C2 5.95596 2 5.9368 2 5.9178C2 5.89879 2 5.87994 2 5.86124C2 5.84254 2 5.824 2 5.80561C2 5.78722 2 5.76899 2 5.75091C2 5.73283 2 5.71491 2 5.69715C2 5.67938 2 5.66177 2 5.64432C2 5.62687 2 5.60958 2 5.59244C2 5.5753 2 5.55832 2 5.54151C2 5.52469 2 5.50803 2 5.49152C2 5.47502 2 5.45868 2 5.4425C2 5.42632 2 5.4103 2 5.39443C2 5.37857 2 5.36287 2 5.34734C2 5.3318 2 5.31642 2 5.30121C2 5.286 2 5.27094 2 5.25606C2 5.24117 2 5.22644 2 5.21188C2 5.19732 2 5.18292 2 5.16869C2 5.15446 2 5.14039 2 5.12649C2 5.11259 2 5.09885 2 5.08528C2 5.07171 2 5.05831 2 5.04507C2 5.03183 2 5.01876 2 5.00586C2 4.99295 2 4.98022 2 4.96765C2 4.95508 2 4.94268 2 4.93046C2 4.91823 2 4.90617 2 4.89427C2 4.88238 2 4.87066 2 4.85911C2 4.84756 2 4.83618 2 4.82498C2 4.81377 2 4.80273 2 4.79187C2 4.781 2 4.77031 2 4.75979C2 4.74927 2 4.73892 2 4.72875C2 4.71858 2 4.70858 2 4.69875C2 4.68893 2 4.67928 2 4.6698C2 4.66033 2 4.65102 2 4.6419C2 4.63277 2 4.62383 2 4.61505C2 4.60628 2 4.59768 2 4.58927C2 4.58085 2 4.57261 2 4.56454C2 4.55648 2 4.54859 2 4.54089C2 4.53318 2 4.52565 2 4.5183C2 4.51096 2 4.50379 2 4.4968C2 4.48981 2 4.483 2 4.47638C2 4.46975 2 4.4633 2 4.45704C2 4.45077 2 4.44469 2 4.43879C2 4.43289 2 4.42717 2 4.42164C2 4.4161 2 4.41075 2 4.40559C2 4.40042 2 4.39544 2 4.39064C2 4.38584 2 4.38123 2 4.3768C2 4.37237 2 4.36813 2 4.36407C2 4.36001 2 4.35614 2 4.35246C2 4.34878 2 4.34528 2 4.34197C2 4.33866 2 4.33554 2 4.33261C2 4.32968 2 4.32693 2 4.32438C2 4.32182 2 4.31946 2 4.31728C2 4.31511 2 4.31312 2 4.31133C2 4.30953 2 4.30793 2 4.30651C2 4.3051 2 4.30388 2 4.30285C2 4.30182 2 4.30098 2 4.30034C2 4.29969 2 4.29924 2 4.29898H5.96046e-08C5.96046e-08 4.29924 5.96046e-08 4.29969 5.96046e-08 4.30034C5.96046e-08 4.30098 5.96046e-08 4.30182 5.96046e-08 4.30285C5.96046e-08 4.30388 5.96046e-08 4.3051 5.96046e-08 4.30651C5.96046e-08 4.30793 5.96046e-08 4.30953 5.96046e-08 4.31133C5.96046e-08 4.31312 5.96046e-08 4.31511 5.96046e-08 4.31728C5.96046e-08 4.31946 5.96046e-08 4.32182 5.96046e-08 4.32438C5.96046e-08 4.32693 5.96046e-08 4.32968 5.96046e-08 4.33261C5.96046e-08 4.33554 5.96046e-08 4.33866 5.96046e-08 4.34197C5.96046e-08 4.34528 5.96046e-08 4.34878 5.96046e-08 4.35246C5.96046e-08 4.35614 5.96046e-08 4.36001 5.96046e-08 4.36407C5.96046e-08 4.36813 5.96046e-08 4.37237 5.96046e-08 4.3768C5.96046e-08 4.38123 5.96046e-08 4.38584 5.96046e-08 4.39064C5.96046e-08 4.39544 5.96046e-08 4.40042 5.96046e-08 4.40559C5.96046e-08 4.41075 5.96046e-08 4.4161 5.96046e-08 4.42164C5.96046e-08 4.42717 5.96046e-08 4.43289 5.96046e-08 4.43879C5.96046e-08 4.44469 5.96046e-08 4.45077 5.96046e-08 4.45704C5.96046e-08 4.4633 5.96046e-08 4.46975 5.96046e-08 4.47638C5.96046e-08 4.483 5.96046e-08 4.48981 5.96046e-08 4.4968C5.96046e-08 4.50379 5.96046e-08 4.51096 5.96046e-08 4.5183C5.96046e-08 4.52565 5.96046e-08 4.53318 5.96046e-08 4.54089C5.96046e-08 4.54859 5.96046e-08 4.55648 5.96046e-08 4.56454C5.96046e-08 4.57261 5.96046e-08 4.58085 5.96046e-08 4.58927C5.96046e-08 4.59768 5.96046e-08 4.60628 5.96046e-08 4.61505C5.96046e-08 4.62383 5.96046e-08 4.63277 5.96046e-08 4.6419C5.96046e-08 4.65102 5.96046e-08 4.66033 5.96046e-08 4.6698C5.96046e-08 4.67928 5.96046e-08 4.68893 5.96046e-08 4.69875C5.96046e-08 4.70858 5.96046e-08 4.71858 5.96046e-08 4.72875C5.96046e-08 4.73892 5.96046e-08 4.74927 5.96046e-08 4.75979C5.96046e-08 4.77031 5.96046e-08 4.781 5.96046e-08 4.79187C5.96046e-08 4.80273 5.96046e-08 4.81377 5.96046e-08 4.82498C5.96046e-08 4.83618 5.96046e-08 4.84756 5.96046e-08 4.85911C5.96046e-08 4.87066 5.96046e-08 4.88238 5.96046e-08 4.89427C5.96046e-08 4.90617 5.96046e-08 4.91823 5.96046e-08 4.93046C5.96046e-08 4.94268 5.96046e-08 4.95508 5.96046e-08 4.96765C5.96046e-08 4.98022 5.96046e-08 4.99295 5.96046e-08 5.00586C5.96046e-08 5.01876 5.96046e-08 5.03183 5.96046e-08 5.04507C5.96046e-08 5.05831 5.96046e-08 5.07171 5.96046e-08 5.08528C5.96046e-08 5.09885 5.96046e-08 5.11259 5.96046e-08 5.12649C5.96046e-08 5.14039 5.96046e-08 5.15446 5.96046e-08 5.16869C5.96046e-08 5.18292 5.96046e-08 5.19732 5.96046e-08 5.21188C5.96046e-08 5.22644 5.96046e-08 5.24117 5.96046e-08 5.25606C5.96046e-08 5.27094 5.96046e-08 5.286 5.96046e-08 5.30121C5.96046e-08 5.31642 5.96046e-08 5.3318 5.96046e-08 5.34734C5.96046e-08 5.36287 5.96046e-08 5.37857 5.96046e-08 5.39443C5.96046e-08 5.4103 5.96046e-08 5.42632 5.96046e-08 5.4425C5.96046e-08 5.45868 5.96046e-08 5.47502 5.96046e-08 5.49152C5.96046e-08 5.50803 5.96046e-08 5.52469 5.96046e-08 5.54151C5.96046e-08 5.55832 5.96046e-08 5.5753 5.96046e-08 5.59244C5.96046e-08 5.60958 5.96046e-08 5.62687 5.96046e-08 5.64432C5.96046e-08 5.66177 5.96046e-08 5.67938 5.96046e-08 5.69715C5.96046e-08 5.71491 5.96046e-08 5.73283 5.96046e-08 5.75091C5.96046e-08 5.76899 5.96046e-08 5.78722 5.96046e-08 5.80561C5.96046e-08 5.824 5.96046e-08 5.84254 5.96046e-08 5.86124C5.96046e-08 5.87994 5.96046e-08 5.89879 5.96046e-08 5.9178C5.96046e-08 5.9368 5.96046e-08 5.95596 5.96046e-08 5.97527C5.96046e-08 5.99458 5.96046e-08 6.01405 5.96046e-08 6.03366C5.96046e-08 6.05328 5.96046e-08 6.07305 5.96046e-08 6.09297C5.96046e-08 6.11289 5.96046e-08 6.13296 5.96046e-08 6.15318C5.96046e-08 6.1734 5.96046e-08 6.19378 5.96046e-08 6.2143C5.96046e-08 6.23482 5.96046e-08 6.25549 5.96046e-08 6.27631C5.96046e-08 6.29713 5.96046e-08 6.3181 5.96046e-08 6.33922C5.96046e-08 6.36034 5.96046e-08 6.38161 5.96046e-08 6.40302C5.96046e-08 6.42444 5.96046e-08 6.446 5.96046e-08 6.46771C5.96046e-08 6.48942 5.96046e-08 6.51127 5.96046e-08 6.53327C5.96046e-08 6.55528 5.96046e-08 6.57742 5.96046e-08 6.59972C5.96046e-08 6.62201 5.96046e-08 6.64445 5.96046e-08 6.66703C5.96046e-08 6.68962 5.96046e-08 6.71234 5.96046e-08 6.73521C5.96046e-08 6.75809 5.96046e-08 6.7811 5.96046e-08 6.80426C5.96046e-08 6.82742 5.96046e-08 6.85072 5.96046e-08 6.87417C5.96046e-08 6.89761 5.96046e-08 6.9212 5.96046e-08 6.94492C5.96046e-08 6.96865 5.96046e-08 6.99252 5.96046e-08 7.01653C5.96046e-08 7.04054 5.96046e-08 7.0647 5.96046e-08 7.08899C5.96046e-08 7.11328 5.96046e-08 7.13771 5.96046e-08 7.16228C5.96046e-08 7.18685 5.96046e-08 7.21156 5.96046e-08 7.23641C5.96046e-08 7.26126 5.96046e-08 7.28625 5.96046e-08 7.31138C5.96046e-08 7.3365 5.96046e-08 7.36177 5.96046e-08 7.38717C5.96046e-08 7.41257 5.96046e-08 7.43811 5.96046e-08 7.46378C5.96046e-08 7.48946 5.96046e-08 7.51527 5.96046e-08 7.54122C5.96046e-08 7.56716 5.96046e-08 7.59325 5.96046e-08 7.61946C5.96046e-08 7.64568 5.96046e-08 7.67203 5.96046e-08 7.69852C5.96046e-08 7.72501 5.96046e-08 7.75163 5.96046e-08 7.77838C5.96046e-08 7.80514 5.96046e-08 7.83203 5.96046e-08 7.85905C5.96046e-08 7.88607 5.96046e-08 7.91322 5.96046e-08 7.94051C5.96046e-08 7.96779 5.96046e-08 7.99521 5.96046e-08 8.02276C5.96046e-08 8.05031 5.96046e-08 8.07799 5.96046e-08 8.1058C5.96046e-08 8.13361 5.96046e-08 8.16155 5.96046e-08 8.18962C5.96046e-08 8.21769 5.96046e-08 8.24589 5.96046e-08 8.27422C5.96046e-08 8.30255 5.96046e-08 8.33101 5.96046e-08 8.35959C5.96046e-08 8.38818 5.96046e-08 8.4169 5.96046e-08 8.44574C5.96046e-08 8.47458 5.96046e-08 8.50355 5.96046e-08 8.53265C5.96046e-08 8.56175 5.96046e-08 8.59097 5.96046e-08 8.62032C5.96046e-08 8.64967 5.96046e-08 8.67914 5.96046e-08 8.70875C5.96046e-08 8.73835 5.96046e-08 8.76807 5.96046e-08 8.79792C5.96046e-08 8.82777 5.96046e-08 8.85775 5.96046e-08 8.88785C5.96046e-08 8.91795 5.96046e-08 8.94817 5.96046e-08 8.97852C5.96046e-08 9.00886 5.96046e-08 9.03933 5.96046e-08 9.06992C5.96046e-08 9.10052 5.96046e-08 9.13123 5.96046e-08 9.16207C5.96046e-08 9.1929 5.96046e-08 9.22386 5.96046e-08 9.25494C5.96046e-08 9.28601 5.96046e-08 9.31721 5.96046e-08 9.34853C5.96046e-08 9.37985 5.96046e-08 9.41129 5.96046e-08 9.44285C5.96046e-08 9.47441 5.96046e-08 9.50608 5.96046e-08 9.53788C5.96046e-08 9.56968 5.96046e-08 9.60159 5.96046e-08 9.63362C5.96046e-08 9.66566 5.96046e-08 9.69781 5.96046e-08 9.73007C5.96046e-08 9.76234 5.96046e-08 9.79473 5.96046e-08 9.82723C5.96046e-08 9.85973 5.96046e-08 9.89235 5.96046e-08 9.92508C5.96046e-08 9.95782 5.96046e-08 9.99066 5.96046e-08 10.0236C5.96046e-08 10.0566 5.96046e-08 10.0897 5.96046e-08 10.1229C5.96046e-08 10.1561 5.96046e-08 10.1894 5.96046e-08 10.2228C5.96046e-08 10.2562 5.96046e-08 10.2897 5.96046e-08 10.3234C5.96046e-08 10.357 5.96046e-08 10.3908 5.96046e-08 10.4247C5.96046e-08 10.4585 5.96046e-08 10.4925 5.96046e-08 10.5266C5.96046e-08 10.5607 5.96046e-08 10.5949 5.96046e-08 10.6292C5.96046e-08 10.6635 5.96046e-08 10.698 5.96046e-08 10.7325C5.96046e-08 10.767 5.96046e-08 10.8017 5.96046e-08 10.8364C5.96046e-08 10.8712 5.96046e-08 10.9061 5.96046e-08 10.941C5.96046e-08 10.976 5.96046e-08 11.0111 5.96046e-08 11.0463C5.96046e-08 11.0815 5.96046e-08 11.1168 5.96046e-08 11.1522C5.96046e-08 11.1876 5.96046e-08 11.2231 5.96046e-08 11.2587C5.96046e-08 11.2943 5.96046e-08 11.33 5.96046e-08 11.3658C5.96046e-08 11.4017 5.96046e-08 11.4376 5.96046e-08 11.4736C5.96046e-08 11.5097 5.96046e-08 11.5458 5.96046e-08 11.5821C5.96046e-08 11.6183 5.96046e-08 11.6546 5.96046e-08 11.6911C5.96046e-08 11.7275 5.96046e-08 11.7641 5.96046e-08 11.8008C5.96046e-08 11.8374 5.96046e-08 11.8742 5.96046e-08 11.911C5.96046e-08 11.9479 5.96046e-08 11.9848 5.96046e-08 12.0219C5.96046e-08 12.059 5.96046e-08 12.0961 5.96046e-08 12.1334C5.96046e-08 12.1707 5.96046e-08 12.208 5.96046e-08 12.2455C5.96046e-08 12.2829 5.96046e-08 12.3205 5.96046e-08 12.3582C5.96046e-08 12.3958 5.96046e-08 12.4336 5.96046e-08 12.4714C5.96046e-08 12.5093 5.96046e-08 12.5473 5.96046e-08 12.5853C5.96046e-08 12.6234 5.96046e-08 12.6615 5.96046e-08 12.6998C5.96046e-08 12.738 5.96046e-08 12.7763 5.96046e-08 12.8148C5.96046e-08 12.8532 5.96046e-08 12.8917 5.96046e-08 12.9304C5.96046e-08 12.969 5.96046e-08 13.0077 5.96046e-08 13.0465C5.96046e-08 13.0853 5.96046e-08 13.1243 5.96046e-08 13.1633C5.96046e-08 13.2023 5.96046e-08 13.2414 5.96046e-08 13.2806C5.96046e-08 13.3197 5.96046e-08 13.359 5.96046e-08 13.3984C5.96046e-08 13.4378 5.96046e-08 13.4772 5.96046e-08 13.5168C5.96046e-08 13.5564 5.96046e-08 13.596 5.96046e-08 13.6357C5.96046e-08 13.6755 5.96046e-08 13.7153 5.96046e-08 13.7552C5.96046e-08 13.7951 5.96046e-08 13.8351 5.96046e-08 13.8752C5.96046e-08 13.9153 5.96046e-08 13.9555 5.96046e-08 13.9958C5.96046e-08 14.0361 5.96046e-08 14.0764 5.96046e-08 14.1169C5.96046e-08 14.1573 5.96046e-08 14.1979 5.96046e-08 14.2385C5.96046e-08 14.2791 5.96046e-08 14.3198 5.96046e-08 14.3606C5.96046e-08 14.4014 5.96046e-08 14.4423 5.96046e-08 14.4833C5.96046e-08 14.5242 5.96046e-08 14.5653 5.96046e-08 14.6064C5.96046e-08 14.6476 5.96046e-08 14.6888 5.96046e-08 14.7301C5.96046e-08 14.7714 5.96046e-08 14.8128 5.96046e-08 14.8543C5.96046e-08 14.8957 5.96046e-08 14.9373 5.96046e-08 14.9789C5.96046e-08 15.0206 5.96046e-08 15.0623 5.96046e-08 15.1041C5.96046e-08 15.1459 5.96046e-08 15.1878 5.96046e-08 15.2297C5.96046e-08 15.2717 5.96046e-08 15.3137 5.96046e-08 15.3559C5.96046e-08 15.398 5.96046e-08 15.4402 5.96046e-08 15.4825C5.96046e-08 15.5247 5.96046e-08 15.5671 5.96046e-08 15.6096C5.96046e-08 15.652 5.96046e-08 15.6945 5.96046e-08 15.7371C5.96046e-08 15.7797 5.96046e-08 15.8224 5.96046e-08 15.8651C5.96046e-08 15.9079 5.96046e-08 15.9507 5.96046e-08 15.9936C5.96046e-08 16.0365 5.96046e-08 16.0795 5.96046e-08 16.1226C5.96046e-08 16.1656 5.96046e-08 16.2087 5.96046e-08 16.252C5.96046e-08 16.2952 5.96046e-08 16.3384 5.96046e-08 16.3818C5.96046e-08 16.4252 5.96046e-08 16.4686 5.96046e-08 16.5121C5.96046e-08 16.5556 5.96046e-08 16.5992 5.96046e-08 16.6428C5.96046e-08 16.6865 5.96046e-08 16.7302 5.96046e-08 16.774C5.96046e-08 16.8178 5.96046e-08 16.8616 5.96046e-08 16.9056C5.96046e-08 16.9495 5.96046e-08 16.9935 5.96046e-08 17.0376C5.96046e-08 17.0817 5.96046e-08 17.1258 5.96046e-08 17.17C5.96046e-08 17.2143 5.96046e-08 17.2585 5.96046e-08 17.3029C5.96046e-08 17.3473 5.96046e-08 17.3917 5.96046e-08 17.4362C5.96046e-08 17.4807 5.96046e-08 17.5252 5.96046e-08 17.5699C5.96046e-08 17.6145 5.96046e-08 17.6592 5.96046e-08 17.7039C5.96046e-08 17.7487 5.96046e-08 17.7935 5.96046e-08 17.8384C5.96046e-08 17.8833 5.96046e-08 17.9283 5.96046e-08 17.9733C5.96046e-08 18.0183 5.96046e-08 18.0634 5.96046e-08 18.1086C5.96046e-08 18.1537 5.96046e-08 18.199 5.96046e-08 18.2442C5.96046e-08 18.2895 5.96046e-08 18.3349 5.96046e-08 18.3803C5.96046e-08 18.4257 5.96046e-08 18.4712 5.96046e-08 18.5167C5.96046e-08 18.5622 5.96046e-08 18.6078 5.96046e-08 18.6535C5.96046e-08 18.6991 5.96046e-08 18.7449 5.96046e-08 18.7906C5.96046e-08 18.8364 5.96046e-08 18.8823 5.96046e-08 18.9282C5.96046e-08 18.9741 5.96046e-08 19.02 5.96046e-08 19.0661C5.96046e-08 19.1121 5.96046e-08 19.1582 5.96046e-08 19.2043C5.96046e-08 19.2504 5.96046e-08 19.2966 5.96046e-08 19.3429C5.96046e-08 19.3891 5.96046e-08 19.4354 5.96046e-08 19.4818C5.96046e-08 19.5282 5.96046e-08 19.5746 5.96046e-08 19.6211C5.96046e-08 19.6676 5.96046e-08 19.7141 5.96046e-08 19.7607C5.96046e-08 19.8073 5.96046e-08 19.8539 5.96046e-08 19.9007C5.96046e-08 19.9474 5.96046e-08 19.9941 5.96046e-08 20.0409C5.96046e-08 20.0877 5.96046e-08 20.1346 5.96046e-08 20.1815C5.96046e-08 20.2284 5.96046e-08 20.2754 5.96046e-08 20.3224C5.96046e-08 20.3695 5.96046e-08 20.4165 5.96046e-08 20.4637C5.96046e-08 20.5108 5.96046e-08 20.558 5.96046e-08 20.6052C5.96046e-08 20.6525 5.96046e-08 20.6997 5.96046e-08 20.7471C5.96046e-08 20.7944 5.96046e-08 20.8418 5.96046e-08 20.8892C5.96046e-08 20.9367 5.96046e-08 20.9841 5.96046e-08 21.0317C5.96046e-08 21.0792 5.96046e-08 21.1268 5.96046e-08 21.1744C5.96046e-08 21.222 5.96046e-08 21.2697 5.96046e-08 21.3174C5.96046e-08 21.3652 5.96046e-08 21.4129 5.96046e-08 21.4608C5.96046e-08 21.5086 5.96046e-08 21.5564 5.96046e-08 21.6043C5.96046e-08 21.6523 5.96046e-08 21.7002 5.96046e-08 21.7482C5.96046e-08 21.7962 5.96046e-08 21.8443 5.96046e-08 21.8924C5.96046e-08 21.9404 5.96046e-08 21.9886 5.96046e-08 22.0368C5.96046e-08 22.0849 5.96046e-08 22.1332 5.96046e-08 22.1814C5.96046e-08 22.2297 5.96046e-08 22.278 5.96046e-08 22.3263C5.96046e-08 22.3747 5.96046e-08 22.4231 5.96046e-08 22.4715C5.96046e-08 22.52 5.96046e-08 22.5684 5.96046e-08 22.6169C5.96046e-08 22.6655 5.96046e-08 22.714 5.96046e-08 22.7626C5.96046e-08 22.8112 5.96046e-08 22.8598 5.96046e-08 22.9085C5.96046e-08 22.9572 5.96046e-08 23.0059 5.96046e-08 23.0547C5.96046e-08 23.1034 5.96046e-08 23.1522 5.96046e-08 23.201C5.96046e-08 23.2499 5.96046e-08 23.2987 5.96046e-08 23.3476C5.96046e-08 23.3965 5.96046e-08 23.4455 5.96046e-08 23.4944C5.96046e-08 23.5434 5.96046e-08 23.5924 5.96046e-08 23.6415C5.96046e-08 23.6905 5.96046e-08 23.7396 5.96046e-08 23.7887C5.96046e-08 23.8378 5.96046e-08 23.887 5.96046e-08 23.9362C5.96046e-08 23.9854 5.96046e-08 24.0346 5.96046e-08 24.0838C5.96046e-08 24.1331 5.96046e-08 24.1824 5.96046e-08 24.2317C5.96046e-08 24.281 5.96046e-08 24.3304 5.96046e-08 24.3798C5.96046e-08 24.4291 5.96046e-08 24.4785 5.96046e-08 24.528C5.96046e-08 24.5774 5.96046e-08 24.6269 5.96046e-08 24.6764C5.96046e-08 24.7259 5.96046e-08 24.7755 5.96046e-08 24.825C5.96046e-08 24.8746 5.96046e-08 24.9242 5.96046e-08 24.9738C5.96046e-08 25.0234 5.96046e-08 25.0731 5.96046e-08 25.1228C5.96046e-08 25.1725 5.96046e-08 25.2222 5.96046e-08 25.2719C5.96046e-08 25.3216 5.96046e-08 25.3714 5.96046e-08 25.4212C5.96046e-08 25.471 5.96046e-08 25.5208 5.96046e-08 25.5706C5.96046e-08 25.6205 5.96046e-08 25.6704 5.96046e-08 25.7203C5.96046e-08 25.7701 5.96046e-08 25.8201 5.96046e-08 25.87C5.96046e-08 25.92 5.96046e-08 25.9699 5.96046e-08 26.0199C5.96046e-08 26.0699 5.96046e-08 26.1199 5.96046e-08 26.1699C5.96046e-08 26.22 5.96046e-08 26.27 5.96046e-08 26.3201C5.96046e-08 26.3702 5.96046e-08 26.4203 5.96046e-08 26.4704C5.96046e-08 26.5206 5.96046e-08 26.5707 5.96046e-08 26.6209C5.96046e-08 26.671 5.96046e-08 26.7212 5.96046e-08 26.7714C5.96046e-08 26.8216 5.96046e-08 26.8719 5.96046e-08 26.9221C5.96046e-08 26.9724 5.96046e-08 27.0226 5.96046e-08 27.0729C5.96046e-08 27.1232 5.96046e-08 27.1735 5.96046e-08 27.2238C5.96046e-08 27.2741 5.96046e-08 27.3245 5.96046e-08 27.3748C5.96046e-08 27.4252 5.96046e-08 27.4755 5.96046e-08 27.5259C5.96046e-08 27.5763 5.96046e-08 27.6267 5.96046e-08 27.6771C5.96046e-08 27.7276 5.96046e-08 27.778 5.96046e-08 27.8284C5.96046e-08 27.8789 5.96046e-08 27.9294 5.96046e-08 27.9798C5.96046e-08 28.0303 5.96046e-08 28.0808 5.96046e-08 28.1313C5.96046e-08 28.1818 5.96046e-08 28.2323 5.96046e-08 28.2829C5.96046e-08 28.3334 5.96046e-08 28.3839 5.96046e-08 28.4345C5.96046e-08 28.485 5.96046e-08 28.5356 5.96046e-08 28.5862C5.96046e-08 28.6367 5.96046e-08 28.6873 5.96046e-08 28.7379C5.96046e-08 28.7885 5.96046e-08 28.8391 5.96046e-08 28.8897C5.96046e-08 28.9404 5.96046e-08 28.991 5.96046e-08 29.0416C5.96046e-08 29.0923 5.96046e-08 29.1429 5.96046e-08 29.1936C5.96046e-08 29.2442 5.96046e-08 29.2949 5.96046e-08 29.3455C5.96046e-08 29.3962 5.96046e-08 29.4469 5.96046e-08 29.4975C5.96046e-08 29.5482 5.96046e-08 29.5989 5.96046e-08 29.6496C5.96046e-08 29.7003 5.96046e-08 29.751 5.96046e-08 29.8017C5.96046e-08 29.8524 5.96046e-08 29.9031 5.96046e-08 29.9538C5.96046e-08 30.0045 5.96046e-08 30.0552 5.96046e-08 30.106C5.96046e-08 30.1567 5.96046e-08 30.2074 5.96046e-08 30.2581C5.96046e-08 30.3089 5.96046e-08 30.3596 5.96046e-08 30.4103C5.96046e-08 30.461 5.96046e-08 30.5118 5.96046e-08 30.5625C5.96046e-08 30.6132 5.96046e-08 30.664 5.96046e-08 30.7147C5.96046e-08 30.7655 5.96046e-08 30.8162 5.96046e-08 30.8669C5.96046e-08 30.9177 5.96046e-08 30.9684 5.96046e-08 31.0191C5.96046e-08 31.0699 5.96046e-08 31.1206 5.96046e-08 31.1713C5.96046e-08 31.2221 5.96046e-08 31.2728 5.96046e-08 31.3235C5.96046e-08 31.3742 5.96046e-08 31.425 5.96046e-08 31.4757C5.96046e-08 31.5264 5.96046e-08 31.5771 5.96046e-08 31.6278C5.96046e-08 31.6786 5.96046e-08 31.7293 5.96046e-08 31.78C5.96046e-08 31.8307 5.96046e-08 31.8814 5.96046e-08 31.9321C5.96046e-08 31.9828 5.96046e-08 32.0335 5.96046e-08 32.0841C5.96046e-08 32.1348 5.96046e-08 32.1855 5.96046e-08 32.2362C5.96046e-08 32.2868 5.96046e-08 32.3375 5.96046e-08 32.3882C5.96046e-08 32.4388 5.96046e-08 32.4895 5.96046e-08 32.5401C5.96046e-08 32.5908 5.96046e-08 32.6414 5.96046e-08 32.692C5.96046e-08 32.7426 5.96046e-08 32.7932 5.96046e-08 32.8438C5.96046e-08 32.8945 5.96046e-08 32.945 5.96046e-08 32.9956C5.96046e-08 33.0462 5.96046e-08 33.0968 5.96046e-08 33.1473C5.96046e-08 33.1979 5.96046e-08 33.2485 5.96046e-08 33.299C5.96046e-08 33.3495 5.96046e-08 33.4001 5.96046e-08 33.4506C5.96046e-08 33.5011 5.96046e-08 33.5516 5.96046e-08 33.6021C5.96046e-08 33.6526 5.96046e-08 33.703 5.96046e-08 33.7535C5.96046e-08 33.8039 5.96046e-08 33.8544 5.96046e-08 33.9048C5.96046e-08 33.9552 5.96046e-08 34.0057 5.96046e-08 34.0561C5.96046e-08 34.1064 5.96046e-08 34.1568 5.96046e-08 34.2072C5.96046e-08 34.2576 5.96046e-08 34.3079 5.96046e-08 34.3582C5.96046e-08 34.4086 5.96046e-08 34.4589 5.96046e-08 34.5092C5.96046e-08 34.5595 5.96046e-08 34.6098 5.96046e-08 34.66C5.96046e-08 34.7103 5.96046e-08 34.7605 5.96046e-08 34.8107C5.96046e-08 34.861 5.96046e-08 34.9112 5.96046e-08 34.9613C5.96046e-08 35.0115 5.96046e-08 35.0617 5.96046e-08 35.1118C5.96046e-08 35.162 5.96046e-08 35.2121 5.96046e-08 35.2622C5.96046e-08 35.3123 5.96046e-08 35.3623 5.96046e-08 35.4124C5.96046e-08 35.4624 5.96046e-08 35.5125 5.96046e-08 35.5625C5.96046e-08 35.6125 5.96046e-08 35.6625 5.96046e-08 35.7124C5.96046e-08 35.7624 5.96046e-08 35.8123 5.96046e-08 35.8622C5.96046e-08 35.9121 5.96046e-08 35.962 5.96046e-08 36.0119C5.96046e-08 36.0617 5.96046e-08 36.1116 5.96046e-08 36.1614C5.96046e-08 36.2112 5.96046e-08 36.261 5.96046e-08 36.3107C5.96046e-08 36.3605 5.96046e-08 36.4102 5.96046e-08 36.4599C5.96046e-08 36.5096 5.96046e-08 36.5593 5.96046e-08 36.6089C5.96046e-08 36.6586 5.96046e-08 36.7082 5.96046e-08 36.7578C5.96046e-08 36.8074 5.96046e-08 36.8569 5.96046e-08 36.9065C5.96046e-08 36.956 5.96046e-08 37.0055 5.96046e-08 37.0549C5.96046e-08 37.1044 5.96046e-08 37.1538 5.96046e-08 37.2033C5.96046e-08 37.2527 5.96046e-08 37.302 5.96046e-08 37.3514C5.96046e-08 37.4007 5.96046e-08 37.45 5.96046e-08 37.4993C5.96046e-08 37.5486 5.96046e-08 37.5978 5.96046e-08 37.647C5.96046e-08 37.6962 5.96046e-08 37.7454 5.96046e-08 37.7945C5.96046e-08 37.8437 5.96046e-08 37.8928 5.96046e-08 37.9419C5.96046e-08 37.9909 5.96046e-08 38.04 5.96046e-08 38.089C5.96046e-08 38.138 5.96046e-08 38.1869 5.96046e-08 38.2359C5.96046e-08 38.2848 5.96046e-08 38.3337 5.96046e-08 38.3825C5.96046e-08 38.4314 5.96046e-08 38.4802 5.96046e-08 38.529C5.96046e-08 38.5778 5.96046e-08 38.6265 5.96046e-08 38.6752C5.96046e-08 38.7239 5.96046e-08 38.7726 5.96046e-08 38.8212C5.96046e-08 38.8698 5.96046e-08 38.9184 5.96046e-08 38.9669C5.96046e-08 39.0155 5.96046e-08 39.064 5.96046e-08 39.1124C5.96046e-08 39.1609 5.96046e-08 39.2093 5.96046e-08 39.2577C5.96046e-08 39.3061 5.96046e-08 39.3544 5.96046e-08 39.4027C5.96046e-08 39.451 5.96046e-08 39.4993 5.96046e-08 39.5475C5.96046e-08 39.5957 5.96046e-08 39.6438 5.96046e-08 39.692C5.96046e-08 39.7401 5.96046e-08 39.7882 5.96046e-08 39.8362C5.96046e-08 39.8842 5.96046e-08 39.9322 5.96046e-08 39.9801C5.96046e-08 40.0281 5.96046e-08 40.076 5.96046e-08 40.1238C5.96046e-08 40.1717 5.96046e-08 40.2195 5.96046e-08 40.2672C5.96046e-08 40.315 5.96046e-08 40.3627 5.96046e-08 40.4104C5.96046e-08 40.458 5.96046e-08 40.5056 5.96046e-08 40.5532C5.96046e-08 40.6008 5.96046e-08 40.6483 5.96046e-08 40.6958C5.96046e-08 40.7432 5.96046e-08 40.7906 5.96046e-08 40.838C5.96046e-08 40.8854 5.96046e-08 40.9327 5.96046e-08 40.98C5.96046e-08 41.0272 5.96046e-08 41.0744 5.96046e-08 41.1216C5.96046e-08 41.1688 5.96046e-08 41.2159 5.96046e-08 41.2629C5.96046e-08 41.31 5.96046e-08 41.357 5.96046e-08 41.404C5.96046e-08 41.4509 5.96046e-08 41.4978 5.96046e-08 41.5447C5.96046e-08 41.5915 5.96046e-08 41.6383 5.96046e-08 41.6851C5.96046e-08 41.7318 5.96046e-08 41.7785 5.96046e-08 41.8251C5.96046e-08 41.8718 5.96046e-08 41.9183 5.96046e-08 41.9649C5.96046e-08 42.0114 5.96046e-08 42.0578 5.96046e-08 42.1042C5.96046e-08 42.1506 5.96046e-08 42.197 5.96046e-08 42.2433C5.96046e-08 42.2896 5.96046e-08 42.3358 5.96046e-08 42.382C5.96046e-08 42.4282 5.96046e-08 42.4743 5.96046e-08 42.5204C5.96046e-08 42.5664 5.96046e-08 42.6124 5.96046e-08 42.6584C5.96046e-08 42.7043 5.96046e-08 42.7502 5.96046e-08 42.796C5.96046e-08 42.8418 5.96046e-08 42.8876 5.96046e-08 42.9333C5.96046e-08 42.979 5.96046e-08 43.0246 5.96046e-08 43.0702C5.96046e-08 43.1158 5.96046e-08 43.1613 5.96046e-08 43.2067C5.96046e-08 43.2522 5.96046e-08 43.2976 5.96046e-08 43.3429C5.96046e-08 43.3882 5.96046e-08 43.4335 5.96046e-08 43.4787C5.96046e-08 43.5239 5.96046e-08 43.569 5.96046e-08 43.6141C5.96046e-08 43.6592 5.96046e-08 43.7042 5.96046e-08 43.7491C5.96046e-08 43.7941 5.96046e-08 43.8389 5.96046e-08 43.8837C5.96046e-08 43.9285 5.96046e-08 43.9733 5.96046e-08 44.018C5.96046e-08 44.0626 5.96046e-08 44.1072 5.96046e-08 44.1518C5.96046e-08 44.1963 5.96046e-08 44.2408 5.96046e-08 44.2852C5.96046e-08 44.3296 5.96046e-08 44.3739 5.96046e-08 44.4182C5.96046e-08 44.4625 5.96046e-08 44.5067 5.96046e-08 44.5508C5.96046e-08 44.5949 5.96046e-08 44.639 5.96046e-08 44.6829C5.96046e-08 44.7269 5.96046e-08 44.7708 5.96046e-08 44.8147C5.96046e-08 44.8585 5.96046e-08 44.9023 5.96046e-08 44.946C5.96046e-08 44.9897 5.96046e-08 45.0333 5.96046e-08 45.0769C5.96046e-08 45.1204 5.96046e-08 45.1639 5.96046e-08 45.2073C5.96046e-08 45.2507 5.96046e-08 45.294 5.96046e-08 45.3373C5.96046e-08 45.3806 5.96046e-08 45.4237 5.96046e-08 45.4669C5.96046e-08 45.51 5.96046e-08 45.553 5.96046e-08 45.5959C5.96046e-08 45.6389 5.96046e-08 45.6818 5.96046e-08 45.7246C5.96046e-08 45.7674 5.96046e-08 45.8101 5.96046e-08 45.8528C5.96046e-08 45.8954 5.96046e-08 45.938 5.96046e-08 45.9805C5.96046e-08 46.023 5.96046e-08 46.0654 5.96046e-08 46.1077C5.96046e-08 46.1501 5.96046e-08 46.1923 5.96046e-08 46.2345C5.96046e-08 46.2767 5.96046e-08 46.3188 5.96046e-08 46.3608C5.96046e-08 46.4028 5.96046e-08 46.4447 5.96046e-08 46.4866C5.96046e-08 46.5285 5.96046e-08 46.5702 5.96046e-08 46.6119C5.96046e-08 46.6536 5.96046e-08 46.6952 5.96046e-08 46.7368C5.96046e-08 46.7783 5.96046e-08 46.8197 5.96046e-08 46.8611C5.96046e-08 46.9025 5.96046e-08 46.9437 5.96046e-08 46.9849C5.96046e-08 47.0261 5.96046e-08 47.0672 5.96046e-08 47.1083C5.96046e-08 47.1493 5.96046e-08 47.1902 5.96046e-08 47.2311C5.96046e-08 47.2719 5.96046e-08 47.3127 5.96046e-08 47.3534C5.96046e-08 47.3941 5.96046e-08 47.4347 5.96046e-08 47.4752C5.96046e-08 47.5157 5.96046e-08 47.5561 5.96046e-08 47.5964C5.96046e-08 47.6368 5.96046e-08 47.677 5.96046e-08 47.7172C5.96046e-08 47.7573 5.96046e-08 47.7974 5.96046e-08 47.8374C5.96046e-08 47.8773 5.96046e-08 47.9172 5.96046e-08 47.957C5.96046e-08 47.9968 5.96046e-08 48.0365 5.96046e-08 48.0762C5.96046e-08 48.1158 5.96046e-08 48.1553 5.96046e-08 48.1947C5.96046e-08 48.2342 5.96046e-08 48.2735 5.96046e-08 48.3128C5.96046e-08 48.352 5.96046e-08 48.3912 5.96046e-08 48.4303C5.96046e-08 48.4693 5.96046e-08 48.5083 5.96046e-08 48.5472C5.96046e-08 48.5861 5.96046e-08 48.6248 5.96046e-08 48.6635C5.96046e-08 48.7022 5.96046e-08 48.7408 5.96046e-08 48.7793C5.96046e-08 48.8178 5.96046e-08 48.8562 5.96046e-08 48.8945C5.96046e-08 48.9328 5.96046e-08 48.9711 5.96046e-08 49.0092C5.96046e-08 49.0473 5.96046e-08 49.0853 5.96046e-08 49.1232C5.96046e-08 49.1612 5.96046e-08 49.199 5.96046e-08 49.2367C5.96046e-08 49.2744 5.96046e-08 49.3121 5.96046e-08 49.3496C5.96046e-08 49.3871 5.96046e-08 49.4246 5.96046e-08 49.4619C5.96046e-08 49.4992 5.96046e-08 49.5364 5.96046e-08 49.5736C5.96046e-08 49.6107 5.96046e-08 49.6477 5.96046e-08 49.6847C5.96046e-08 49.7216 5.96046e-08 49.7584 5.96046e-08 49.7951C5.96046e-08 49.8319 5.96046e-08 49.8685 5.96046e-08 49.905C5.96046e-08 49.9415 5.96046e-08 49.978 5.96046e-08 50.0143C5.96046e-08 50.0506 5.96046e-08 50.0868 5.96046e-08 50.1229C5.96046e-08 50.159 5.96046e-08 50.195 5.96046e-08 50.2309C5.96046e-08 50.2668 5.96046e-08 50.3026 5.96046e-08 50.3383C5.96046e-08 50.374 5.96046e-08 50.4095 5.96046e-08 50.445C5.96046e-08 50.4805 5.96046e-08 50.5159 5.96046e-08 50.5511C5.96046e-08 50.5864 5.96046e-08 50.6215 5.96046e-08 50.6566C5.96046e-08 50.6916 5.96046e-08 50.7266 5.96046e-08 50.7614C5.96046e-08 50.7962 5.96046e-08 50.8309 5.96046e-08 50.8655C5.96046e-08 50.9002 5.96046e-08 50.9347 5.96046e-08 50.969C5.96046e-08 51.0034 5.96046e-08 51.0377 5.96046e-08 51.0719C5.96046e-08 51.1061 5.96046e-08 51.1401 5.96046e-08 51.1741C5.96046e-08 51.208 5.96046e-08 51.2418 5.96046e-08 51.2756C5.96046e-08 51.3093 5.96046e-08 51.3429 5.96046e-08 51.3764C5.96046e-08 51.4099 5.96046e-08 51.4433 5.96046e-08 51.4765C5.96046e-08 51.5098 5.96046e-08 51.543 5.96046e-08 51.576C5.96046e-08 51.6091 5.96046e-08 51.642 5.96046e-08 51.6748C5.96046e-08 51.7076 5.96046e-08 51.7403 5.96046e-08 51.7729C5.96046e-08 51.8055 5.96046e-08 51.8379 5.96046e-08 51.8703C5.96046e-08 51.9026 5.96046e-08 51.9348 5.96046e-08 51.967C5.96046e-08 51.9991 5.96046e-08 52.0311 5.96046e-08 52.0629C5.96046e-08 52.0948 5.96046e-08 52.1266 5.96046e-08 52.1582C5.96046e-08 52.1899 5.96046e-08 52.2214 5.96046e-08 52.2528C5.96046e-08 52.2842 5.96046e-08 52.3155 5.96046e-08 52.3466C5.96046e-08 52.3778 5.96046e-08 52.4088 5.96046e-08 52.4397C5.96046e-08 52.4707 5.96046e-08 52.5014 5.96046e-08 52.5321C5.96046e-08 52.5628 5.96046e-08 52.5933 5.96046e-08 52.6238C5.96046e-08 52.6542 5.96046e-08 52.6845 5.96046e-08 52.7147C5.96046e-08 52.7449 5.96046e-08 52.7749 5.96046e-08 52.8049C5.96046e-08 52.8348 5.96046e-08 52.8646 5.96046e-08 52.8943C5.96046e-08 52.924 5.96046e-08 52.9536 5.96046e-08 52.983C5.96046e-08 53.0124 5.96046e-08 53.0417 5.96046e-08 53.0709C5.96046e-08 53.1001 5.96046e-08 53.1292 5.96046e-08 53.1581C5.96046e-08 53.187 5.96046e-08 53.2158 5.96046e-08 53.2445C5.96046e-08 53.2732 5.96046e-08 53.3017 5.96046e-08 53.3301C5.96046e-08 53.3585 5.96046e-08 53.3868 5.96046e-08 53.415C5.96046e-08 53.4431 5.96046e-08 53.4712 5.96046e-08 53.4991C5.96046e-08 53.527 5.96046e-08 53.5547 5.96046e-08 53.5824C5.96046e-08 53.61 5.96046e-08 53.6375 5.96046e-08 53.6649C5.96046e-08 53.6923 5.96046e-08 53.7195 5.96046e-08 53.7466C5.96046e-08 53.7737 5.96046e-08 53.8007 5.96046e-08 53.8276C5.96046e-08 53.8544 5.96046e-08 53.8811 5.96046e-08 53.9077C5.96046e-08 53.9343 5.96046e-08 53.9607 5.96046e-08 53.987C5.96046e-08 54.0133 5.96046e-08 54.0395 5.96046e-08 54.0655C5.96046e-08 54.0916 5.96046e-08 54.1175 5.96046e-08 54.1432C5.96046e-08 54.169 5.96046e-08 54.1946 5.96046e-08 54.2201C5.96046e-08 54.2456 5.96046e-08 54.271 5.96046e-08 54.2962C5.96046e-08 54.3214 5.96046e-08 54.3465 5.96046e-08 54.3715C5.96046e-08 54.3964 5.96046e-08 54.4212 5.96046e-08 54.4459C5.96046e-08 54.4705 5.96046e-08 54.4951 5.96046e-08 54.5195C5.96046e-08 54.5438 5.96046e-08 54.5681 5.96046e-08 54.5922C5.96046e-08 54.6163 5.96046e-08 54.6403 5.96046e-08 54.6641C5.96046e-08 54.6879 5.96046e-08 54.7116 5.96046e-08 54.7351C5.96046e-08 54.7587 5.96046e-08 54.7821 5.96046e-08 54.8053C5.96046e-08 54.8286 5.96046e-08 54.8517 5.96046e-08 54.8747C5.96046e-08 54.8976 5.96046e-08 54.9205 5.96046e-08 54.9431C5.96046e-08 54.9658 5.96046e-08 54.9884 5.96046e-08 55.0107C5.96046e-08 55.0331 5.96046e-08 55.0554 5.96046e-08 55.0775C5.96046e-08 55.0996 5.96046e-08 55.1215 5.96046e-08 55.1433C5.96046e-08 55.1652 5.96046e-08 55.1868 5.96046e-08 55.2083C5.96046e-08 55.2298 5.96046e-08 55.2512 5.96046e-08 55.2724C5.96046e-08 55.2937 5.96046e-08 55.3147 5.96046e-08 55.3356C5.96046e-08 55.3566 5.96046e-08 55.3773 5.96046e-08 55.398C5.96046e-08 55.4186 5.96046e-08 55.4391 5.96046e-08 55.4594C5.96046e-08 55.4797 5.96046e-08 55.4999 5.96046e-08 55.5199C5.96046e-08 55.5399 5.96046e-08 55.5598 5.96046e-08 55.5795C5.96046e-08 55.5992 5.96046e-08 55.6188 5.96046e-08 55.6382C5.96046e-08 55.6576 5.96046e-08 55.6769 5.96046e-08 55.696C5.96046e-08 55.7151 5.96046e-08 55.7341 5.96046e-08 55.7529C5.96046e-08 55.7717 5.96046e-08 55.7903 5.96046e-08 55.8088C5.96046e-08 55.8273 5.96046e-08 55.8456 5.96046e-08 55.8638C5.96046e-08 55.882 5.96046e-08 55.9 5.96046e-08 55.9179C5.96046e-08 55.9358 5.96046e-08 55.9535 5.96046e-08 55.9711C5.96046e-08 55.9886 5.96046e-08 56.006 5.96046e-08 56.0233C5.96046e-08 56.0405 5.96046e-08 56.0576 5.96046e-08 56.0745C5.96046e-08 56.0914 5.96046e-08 56.1082 5.96046e-08 56.1248C5.96046e-08 56.1414 5.96046e-08 56.1579 5.96046e-08 56.1742C5.96046e-08 56.1905 5.96046e-08 56.2066 5.96046e-08 56.2226C5.96046e-08 56.2385 5.96046e-08 56.2543 5.96046e-08 56.27C5.96046e-08 56.2856 5.96046e-08 56.3011 5.96046e-08 56.3164C5.96046e-08 56.3318 5.96046e-08 56.3469 5.96046e-08 56.3619C5.96046e-08 56.3769 5.96046e-08 56.3918 5.96046e-08 56.4064C5.96046e-08 56.4211 5.96046e-08 56.4356 5.96046e-08 56.4499C5.96046e-08 56.4643 5.96046e-08 56.4785 5.96046e-08 56.4925C5.96046e-08 56.5065 5.96046e-08 56.5203 5.96046e-08 56.534C5.96046e-08 56.5477 5.96046e-08 56.5612 5.96046e-08 56.5746C5.96046e-08 56.5879 5.96046e-08 56.6011 5.96046e-08 56.6141C5.96046e-08 56.6272 5.96046e-08 56.64 5.96046e-08 56.6527C5.96046e-08 56.6654 5.96046e-08 56.6779 5.96046e-08 56.6902C5.96046e-08 56.7026 5.96046e-08 56.7147 5.96046e-08 56.7267C5.96046e-08 56.7387 5.96046e-08 56.7506 5.96046e-08 56.7622C5.96046e-08 56.7739 5.96046e-08 56.7854 5.96046e-08 56.7967C5.96046e-08 56.8081 5.96046e-08 56.8192 5.96046e-08 56.8302C5.96046e-08 56.8412 5.96046e-08 56.852 5.96046e-08 56.8626C5.96046e-08 56.8733 5.96046e-08 56.8837 5.96046e-08 56.894C5.96046e-08 56.9043 5.96046e-08 56.9144 5.96046e-08 56.9244C5.96046e-08 56.9343 5.96046e-08 56.9441 5.96046e-08 56.9537C5.96046e-08 56.9633 5.96046e-08 56.9727 5.96046e-08 56.9819C5.96046e-08 56.9912 5.96046e-08 57.0002 5.96046e-08 57.0091C5.96046e-08 57.018 5.96046e-08 57.0267 5.96046e-08 57.0353C5.96046e-08 57.0438 5.96046e-08 57.0522 5.96046e-08 57.0604C5.96046e-08 57.0685 5.96046e-08 57.0765 5.96046e-08 57.0844C5.96046e-08 57.0922 5.96046e-08 57.0998 5.96046e-08 57.1073C5.96046e-08 57.1148 5.96046e-08 57.1221 5.96046e-08 57.1292C5.96046e-08 57.1363 5.96046e-08 57.1432 5.96046e-08 57.15C5.96046e-08 57.1567 5.96046e-08 57.1633 5.96046e-08 57.1697C5.96046e-08 57.1761 5.96046e-08 57.1823 5.96046e-08 57.1883C5.96046e-08 57.1943 5.96046e-08 57.2002 5.96046e-08 57.2058C5.96046e-08 57.2115 5.96046e-08 57.217 5.96046e-08 57.2223C5.96046e-08 57.2275 5.96046e-08 57.2327 5.96046e-08 57.2376C5.96046e-08 57.2425 5.96046e-08 57.2472 5.96046e-08 57.2518C5.96046e-08 57.2563 5.96046e-08 57.2607 5.96046e-08 57.2649C5.96046e-08 57.2691 5.96046e-08 57.2731 5.96046e-08 57.2769H2ZM1.99983 4.31789C2.03284 3.01768 2.26567 2.57793 2.49176 2.38238C2.75095 2.15818 3.30588 1.97618 4.70418 2.00267L4.74206 0.00303024C3.34167 -0.0234988 2.06903 0.103658 1.18337 0.869717C0.264604 1.66441 0.0352893 2.896 0.000478506 4.26713L1.99983 4.31789ZM4.72312 2.00285H25.7191V0.00285083H4.72312V2.00285ZM25.7191 2.00285H40.9777V0.00285083H25.7191V2.00285ZM40.2182 1.65328L49.3124 12.2733L50.8315 10.9725L41.7373 0.352419L40.2182 1.65328ZM49.0719 57.2769C49.0719 58.9673 47.8274 60 46.715 60V62C49.0206 62 51.0719 59.981 51.0719 57.2769H49.0719ZM46.715 60H25.7191V62H46.715V60ZM39.9777 1.00285V9.79185H41.9777V1.00285H39.9777ZM39.9778 9.79761C39.9822 10.5663 40.0804 11.4149 40.6864 11.9964C41.2874 12.573 42.1259 12.6308 42.8203 12.6228L42.7973 10.623C42.4842 10.6266 42.2882 10.6076 42.1646 10.5793C42.0519 10.5535 42.048 10.531 42.0711 10.5532C42.0949 10.576 42.0708 10.5724 42.0402 10.4564C42.0066 10.3295 41.9797 10.1216 41.9777 9.7861L39.9778 9.79761ZM42.8088 12.6229H50.0719V10.6229H42.8088V12.6229ZM18.8832 46.9244H32.8601V44.9244H18.8832V46.9244ZM9.6059 53.272H16.6859V51.272H9.6059V53.272ZM34.5081 53.272H41.5271V51.272H34.5081V53.272ZM51.0719 57.2769V53.3096H49.0719V57.2769H51.0719ZM51.0719 42.9337V11.6229H49.0719V42.9337H51.0719ZM23.0335 53.272H28.8318V51.272H23.0335V53.272ZM2 4.29898C2 4.29948 2 4.30073 1.99999 4.30244C1.99998 4.30413 1.99996 4.307 1.99992 4.31061C1.99986 4.3144 1.99977 4.31916 1.99962 4.32467C1.99945 4.3304 1.99926 4.33529 1.9991 4.33902C1.99903 4.34065 1.99897 4.34191 1.99895 4.34236C1.99894 4.34258 1.99893 4.34276 1.99894 4.34269C1.99894 4.34269 1.99895 4.34246 1.99896 4.34221C1.99902 4.34091 1.99914 4.33838 1.99927 4.33519C1.99953 4.32869 1.99971 4.32288 1.99983 4.31789L0.000478506 4.26713C0.000553727 4.26417 0.000685453 4.25967 0.000909984 4.25414C0.00102001 4.25142 0.00111902 4.24929 0.00116396 4.24833C0.00125831 4.24632 0.00108856 4.24988 0.000976205 4.25248C0.000801682 4.25651 0.00059998 4.2617 0.000427186 4.26777C0.000260472 4.27363 0.000163734 4.27879 0.000104904 4.28306C1.66893e-06 4.29055 5.96046e-08 4.2967 5.96046e-08 4.29898H2ZM25.7191 61C25.7191 62 25.7191 62 25.7191 62C25.7191 61 25.7191 60 25.7191 60V62C25.7191 62 25.7191 61 25.7191 60C25.7191 60 25.7191 60 25.7191 61Z" fill="#505050"/>
</svg>
