<svg width="61" height="60" viewBox="0 0 61 60" fill="none" xmlns="http://www.w3.org/2000/svg">
<rect x="7.68178" y="1" width="51.4545" height="51.4545" rx="25.7273" stroke="#505050" stroke-width="2"/>
<circle cx="33.5021" cy="21.4441" r="9.75319" stroke="#505050" stroke-width="2"/>
<path d="M40.8967 29.0457C43.8923 30.4794 49.6322 36.6368 49.6322 50.2473" stroke="#505050" stroke-width="2"/>
<path d="M26.2129 29.0457C23.2173 30.4794 17.3726 36.6368 17.3726 50.2473" stroke="#505050" stroke-width="2"/>
<rect x="0.999939" y="38.2273" width="20.7727" height="20.7727" rx="10.3864" fill="#462221"/>
<rect x="0.999939" y="38.2273" width="20.7727" height="20.7727" rx="10.3864" stroke="#505050" stroke-width="2"/>
<path d="M15.268 45.2958C13.9961 44.2414 12.6222 43.718 11.3972 43.6007M7.44736 52.5634C8.56261 53.4234 10.0322 53.8832 11.3972 53.9996M11.3972 43.6007C9.60935 43.4297 8.13836 44.1239 7.76336 45.2958C7.13139 47.2707 8.72157 47.958 11.3972 48.6926C14.2123 49.5939 15.584 50.7466 15.268 52.5634C15.0821 53.632 13.3463 54.1659 11.3972 53.9996M11.3972 43.6007V40.3979M11.3972 53.9996V56.8291" stroke="#505050" stroke-width="2" stroke-linecap="round"/>
</svg>
