<svg width="65" height="61" viewBox="0 0 65 61" fill="none" xmlns="http://www.w3.org/2000/svg">
<g id="Partnership Icons">
<path id="Vector 199" d="M27.3438 42.276H38.4334M21.606 47.3123H25.9644M39.7762 47.3123H44.1346M30.6368 47.3123H35.2373M20.379 16.5189L3.0346 22.0183C2.03064 22.3367 1.62988 23.5422 2.24345 24.3983L12.7196 39.0141C12.9082 39.2773 13.0097 39.593 13.0097 39.9169V57.8989C13.0097 58.9424 14.0201 59.6876 15.0171 59.3794L32.5959 53.9444C32.8969 53.8513 33.2191 53.8522 33.5196 53.9469L50.7035 59.3645C51.7022 59.6794 52.7191 58.9337 52.7191 57.8866V39.9185C52.7191 39.5937 52.8212 39.277 53.011 39.0133L63.5298 24.3968C64.1452 23.5417 63.7463 22.335 62.7425 22.0151L45.5015 16.5217C45.1882 16.4218 44.9148 16.225 44.7208 15.9595L34.2968 1.69502C33.6814 0.852939 32.4267 0.846931 31.8033 1.68308L21.153 15.968C20.9591 16.2281 20.6883 16.4208 20.379 16.5189Z" stroke="white" stroke-width="2" stroke-linecap="round"/>
<g id="Frame 80">
<rect x="21.6045" y="15.8589" width="22.7131" height="22.7131" rx="11.3565" stroke="white" stroke-width="1.5"/>
<g id="Group 253">
<circle id="Ellipse 13" cx="33.0036" cy="24.8225" r="4.12082" stroke="white" stroke-width="1.5"/>
<path id="Vector 192" d="M36.353 28.2656C37.7099 28.9151 40.3099 31.7042 40.3099 37.8692" stroke="white" stroke-width="1.5"/>
<path id="Vector 193" d="M29.7017 28.2656C28.3448 28.9151 25.6973 31.7042 25.6973 37.8692" stroke="white" stroke-width="1.5"/>
</g>
</g>
</g>
</svg>
