<svg width="270" height="24" viewBox="0 0 270 24" fill="none" xmlns="http://www.w3.org/2000/svg">
<path d="M8.42543 23.9991C10.1854 23.9991 14.925 23.9995 20.038 23.9995L22.5291 20.1802H10.9897L8.42543 23.9991Z" fill="#FFC700"/>
<path d="M20.0404 14.2649L22.5315 10.0341H8.42739L5.20358 14.2649V3.74408H20.0404L22.5315 0H0.954015V24H5.20358L11.8344 14.2649H20.0404Z" fill="white"/>
<path d="M176.184 23.9995C177.944 23.9995 182.683 23.9999 187.796 23.9999L190.287 20.2329H178.748L176.184 23.9995Z" fill="white"/>
<path d="M187.794 3.74408L190.285 0H168.707V24H172.957L175.343 20.2325H172.957V3.74408H187.794Z" fill="white"/>
<path d="M203.211 23.9991C204.971 23.9991 209.711 23.9995 214.824 23.9995L217.315 20.1802H205.775L203.211 23.9991Z" fill="white"/>
<path d="M214.826 14.2649L217.317 10.0341H203.213L199.989 14.2649V3.74408H214.826L217.317 0H195.739V24H199.989L206.62 14.2649H214.826Z" fill="white"/>
<path d="M62.4886 23.9991C64.2485 23.9991 68.9881 23.9995 74.1012 23.9995L76.5922 20.1802H65.0529L62.4886 23.9991Z" fill="white"/>
<path d="M74.0988 14.2649L76.5899 10.0341H62.4857L59.2619 14.2649V3.74408H74.0988L76.5899 0H55.0124V24H59.2619L65.8927 14.2649H74.0988Z" fill="white"/>
<path d="M49.5929 20.2559L47.1382 24H27.9304V4.57764e-05H32.1967V9.73507V20.2559H49.5929Z" fill="white"/>
<path d="M114.082 23.9995H108.105L118.225 -0.000442505H124.134L114.082 23.9995Z" fill="white"/>
<path d="M128.753 23.9995H134.73L125.629 2.79025L123.048 9.06931L128.753 23.9995Z" fill="white"/>
<path d="M119.246 18.1395H123.864L122.37 14.3721H120.74L119.246 18.1395Z" fill="white"/>
<path d="M88.0041 0H82.0274L92.147 24H98.0558L88.0041 0Z" fill="white"/>
<path d="M102.676 0H108.652L99.5513 21.2093L96.9705 14.9302L102.676 0Z" fill="white"/>
<path d="M140.164 -0.000442505H144.511V23.9995H140.164V-0.000442505Z" fill="white"/>
<path d="M158.906 -0.000442505H163.252V23.9995H158.906V-0.000442505Z" fill="white"/>
<path d="M147.09 9.48835L156.327 24V14.5116L147.09 0V9.48835Z" fill="white"/>
<path d="M243.394 5.86001L239.047 4.8135V23.9995H243.394V5.86001Z" fill="white"/>
<path d="M243.394 2.95639e-05H239.047V3.62793H243.394V2.95639e-05Z" fill="#FFC700"/>
<path d="M260.513 4.57764e-05H256.167V24H260.513V3.62794V4.57764e-05Z" fill="white"/>
<path d="M256.166 2.95639e-05H247.472V3.62793H256.166V2.95639e-05Z" fill="white"/>
<path d="M260.373 3.6279H266.485L269.066 0H260.373V3.6279Z" fill="white"/>
</svg>
